<svg width="36" height="29" viewBox="0 0 36 29" fill="none" xmlns="http://www.w3.org/2000/svg">
<path d="M16.2 23.4H19.8V21.6H21.6C22.11 21.6 22.5378 21.4272 22.8834 21.0816C23.2278 20.7372 23.4 20.31 23.4 19.8V14.4C23.4 13.89 23.2278 13.4622 22.8834 13.1166C22.5378 12.7722 22.11 12.6 21.6 12.6H16.2V10.8H23.4V7.2H19.8V5.4H16.2V7.2H14.4C13.89 7.2 13.4628 7.3722 13.1184 7.7166C12.7728 8.0622 12.6 8.49 12.6 9V14.4C12.6 14.91 12.7728 15.3372 13.1184 15.6816C13.4628 16.0272 13.89 16.2 14.4 16.2H19.8V18H12.6V21.6H16.2V23.4ZM3.6 28.8C2.61 28.8 1.7628 28.4478 1.0584 27.7434C0.3528 27.0378 0 26.19 0 25.2V3.6C0 2.61 0.3528 1.7628 1.0584 1.0584C1.7628 0.3528 2.61 0 3.6 0H32.4C33.39 0 34.2378 0.3528 34.9434 1.0584C35.6478 1.7628 36 2.61 36 3.6V25.2C36 26.19 35.6478 27.0378 34.9434 27.7434C34.2378 28.4478 33.39 28.8 32.4 28.8H3.6ZM3.6 25.2H32.4V3.6H3.6V25.2Z" fill="#1C1B1F"/>
</svg>
