<svg width="16" height="16" viewBox="0 0 16 16" fill="none" xmlns="http://www.w3.org/2000/svg">
<path d="M0.8 14.4V5.36C0.573333 5.21333 0.383467 5.02667 0.2304 4.8C0.0768001 4.57333 0 4.30667 0 4V1.6C0 1.16 0.1568 0.7832 0.4704 0.4696C0.783467 0.156533 1.16 0 1.6 0H14.4C14.84 0 15.2168 0.156533 15.5304 0.4696C15.8435 0.7832 16 1.16 16 1.6V4C16 4.30667 15.9232 4.57333 15.7696 4.8C15.6165 5.02667 15.4267 5.21333 15.2 5.36V14.4C15.2 14.84 15.0435 15.2168 14.7304 15.5304C14.4168 15.8435 14.04 16 13.6 16H2.4C1.96 16 1.5832 15.8435 1.2696 15.5304C0.956533 15.2168 0.8 14.84 0.8 14.4ZM2.4 5.6V14.4H13.6V5.6H2.4ZM14.4 4V1.6H1.6V4H14.4ZM5.6 9.6H10.4V8H5.6V9.6Z" fill="#1C1B1F"/>
</svg>
