<svg width="138" height="40" viewBox="0 0 138 40" fill="none" xmlns="http://www.w3.org/2000/svg">
<g filter="url(#filter0_b_32_138)">
<rect width="138" height="40" fill="black" fill-opacity="0.18" />
<path d="M37.1108 12.92C37.1428 13.008 37.1588 13.108 37.1588 13.22C37.1588 13.348 37.1388 13.476 37.0988 13.604C37.0668 13.724 37.0228 13.816 36.9668 13.88C37.0388 13.952 37.0748 14.112 37.0748 14.36C37.0748 14.6 37.0388 14.768 36.9668 14.864C37.0068 14.904 37.0388 14.976 37.0628 15.08C37.0868 15.184 37.0988 15.3 37.0988 15.428C37.0988 15.668 37.0548 15.856 36.9668 15.992C37.0148 16.144 37.0388 16.28 37.0388 16.4C37.0388 16.584 36.9908 16.724 36.8948 16.82C36.7988 16.916 36.6868 16.964 36.5588 16.964C36.4468 16.964 36.3468 16.924 36.2588 16.844C36.1708 16.764 36.1268 16.656 36.1268 16.52C36.1268 16.448 36.1388 16.376 36.1628 16.304C36.0588 16.12 36.0068 15.912 36.0068 15.68C36.0068 15.448 36.0588 15.28 36.1628 15.176C36.0828 15.096 36.0428 14.984 36.0428 14.84C36.0428 14.704 36.0828 14.596 36.1628 14.516C36.0828 14.356 36.0428 14.176 36.0428 13.976C36.0428 13.776 36.0828 13.64 36.1628 13.568C36.0828 13.408 36.0428 13.196 36.0428 12.932C36.0428 12.668 36.0828 12.5 36.1628 12.428C36.0508 12.276 35.9948 12.096 35.9948 11.888C35.9948 11.704 36.0508 11.56 36.1628 11.456C36.1308 11.416 36.1148 11.36 36.1148 11.288C36.1148 11.232 36.1228 11.16 36.1388 11.072C36.1548 10.976 36.1628 10.888 36.1628 10.808C36.1628 11.016 36.1148 11.288 36.0188 11.624C35.9228 11.952 35.7908 12.176 35.6228 12.296C35.6228 12.824 35.5228 13.132 35.3228 13.22C35.3228 13.396 35.2908 13.604 35.2268 13.844C35.1628 14.076 35.0988 14.192 35.0348 14.192C35.0348 14.288 34.9948 14.396 34.9148 14.516C34.8428 14.628 34.7708 14.684 34.6988 14.684C34.7228 14.764 34.7348 14.852 34.7348 14.948C34.7348 15.06 34.7148 15.168 34.6748 15.272C34.6428 15.368 34.5988 15.444 34.5428 15.5C34.5428 15.644 34.5148 15.764 34.4588 15.86C34.4028 15.956 34.3268 16.048 34.2308 16.136C34.2308 16.288 34.1788 16.408 34.0748 16.496C33.9708 16.584 33.8508 16.628 33.7148 16.628C33.5868 16.628 33.4748 16.588 33.3788 16.508C33.2828 16.42 33.2348 16.3 33.2348 16.148C33.2348 16.076 33.2388 16.024 33.2468 15.992C33.1668 15.992 33.0908 15.924 33.0188 15.788C32.9548 15.644 32.9228 15.492 32.9228 15.332C32.8508 15.332 32.7748 15.272 32.6948 15.152C32.6148 15.024 32.5508 14.884 32.5028 14.732C32.4548 14.572 32.4428 14.452 32.4668 14.372C32.4028 14.324 32.3388 14.232 32.2748 14.096C32.2188 13.96 32.1908 13.816 32.1908 13.664C32.1908 13.504 32.2228 13.364 32.2868 13.244C32.1828 13.236 32.0908 13.164 32.0108 13.028C31.9388 12.884 31.9028 12.744 31.9028 12.608C31.9028 12.528 31.9228 12.468 31.9628 12.428C31.8828 12.364 31.8068 12.26 31.7348 12.116C31.6708 11.972 31.6388 11.856 31.6388 11.768C31.5348 11.664 31.4828 11.452 31.4828 11.132C31.3708 11.132 31.2748 11.032 31.1948 10.832C31.2108 10.984 31.1948 11.136 31.1468 11.288C31.1068 11.432 31.0508 11.54 30.9788 11.612C31.0508 11.676 31.1068 11.8 31.1468 11.984C31.1868 12.16 31.2068 12.34 31.2068 12.524C31.2068 12.692 31.1908 12.812 31.1588 12.884C31.2388 13.012 31.2788 13.208 31.2788 13.472C31.2788 13.768 31.2388 14.008 31.1588 14.192C31.2228 14.328 31.2548 14.464 31.2548 14.6C31.2548 14.72 31.2228 14.856 31.1588 15.008C31.1908 15.04 31.2188 15.12 31.2428 15.248C31.2668 15.368 31.2788 15.5 31.2788 15.644C31.2788 15.916 31.2388 16.08 31.1588 16.136C31.1668 16.184 31.1708 16.248 31.1708 16.328C31.1708 16.536 31.1188 16.696 31.0148 16.808C30.9188 16.92 30.7988 16.976 30.6548 16.976C30.5108 16.976 30.3828 16.92 30.2708 16.808C30.1588 16.696 30.1028 16.548 30.1028 16.364C30.1028 16.228 30.1388 16.076 30.2108 15.908C30.1148 15.58 30.0668 15.272 30.0668 14.984C30.0668 14.72 30.1028 14.516 30.1748 14.372C30.0948 14.268 30.0548 14.104 30.0548 13.88C30.0548 13.776 30.0668 13.68 30.0908 13.592C30.1148 13.496 30.1428 13.428 30.1748 13.388C30.0948 13.204 30.0548 13.02 30.0548 12.836C30.0548 12.644 30.0948 12.508 30.1748 12.428C30.1348 12.372 30.1028 12.3 30.0788 12.212C30.0548 12.124 30.0428 12.032 30.0428 11.936C30.0428 11.792 30.0668 11.684 30.1148 11.612C30.0348 11.476 29.9948 11.3 29.9948 11.084C29.9948 10.804 30.0548 10.604 30.1748 10.484C30.0628 10.372 30.0068 10.144 30.0068 9.8C30.0068 9.64 30.0228 9.488 30.0548 9.344C30.0868 9.192 30.1268 9.092 30.1748 9.044C30.1748 8.892 30.2308 8.768 30.3428 8.672C30.4548 8.576 30.5828 8.528 30.7268 8.528C30.8948 8.528 31.0388 8.588 31.1588 8.708C31.3188 8.708 31.4628 8.78 31.5908 8.924C31.7268 9.068 31.7948 9.216 31.7948 9.368C31.8508 9.416 31.8988 9.484 31.9388 9.572C31.9788 9.652 31.9988 9.736 31.9988 9.824C31.9988 9.888 31.9868 9.952 31.9628 10.016C32.0588 10.024 32.1348 10.08 32.1908 10.184C32.2548 10.288 32.2868 10.388 32.2868 10.484C32.3508 10.54 32.4028 10.62 32.4428 10.724C32.4908 10.82 32.5148 10.92 32.5148 11.024C32.5148 11.12 32.4988 11.212 32.4668 11.3C32.5068 11.3 32.5428 11.336 32.5748 11.408C32.6148 11.472 32.6348 11.544 32.6348 11.624C32.6348 11.688 32.6188 11.736 32.5868 11.768C32.6748 11.816 32.7508 11.916 32.8148 12.068C32.8868 12.212 32.9228 12.332 32.9228 12.428C32.9788 12.484 33.0228 12.576 33.0548 12.704C33.0948 12.832 33.1148 12.964 33.1148 13.1C33.1148 13.204 33.1028 13.3 33.0788 13.388C33.1588 13.444 33.2348 13.56 33.3068 13.736C33.3788 13.904 33.4148 14.068 33.4148 14.228C33.4148 14.292 33.4108 14.34 33.4028 14.372C33.4988 14.444 33.5668 14.512 33.6068 14.576C33.6548 14.64 33.6948 14.736 33.7268 14.864C33.7428 14.512 33.8188 14.3 33.9548 14.228C33.9388 14.164 33.9308 14.116 33.9308 14.084C33.9308 13.964 33.9588 13.848 34.0148 13.736C34.0788 13.624 34.1508 13.568 34.2308 13.568C34.1908 13.488 34.1708 13.42 34.1708 13.364C34.1708 13.188 34.2948 12.964 34.5428 12.692C34.5188 12.644 34.5068 12.58 34.5068 12.5C34.5068 12.364 34.5348 12.224 34.5908 12.08C34.6548 11.936 34.7428 11.832 34.8548 11.768C34.8548 11.528 34.8708 11.328 34.9028 11.168C34.9428 11 35.0348 10.88 35.1788 10.808C35.1788 10.664 35.2108 10.548 35.2748 10.46C35.3468 10.364 35.4308 10.316 35.5268 10.316C35.4868 10.252 35.4668 10.168 35.4668 10.064C35.4668 9.896 35.5028 9.724 35.5748 9.548C35.6548 9.372 35.7468 9.252 35.8508 9.188C35.8508 9.012 35.8988 8.86 35.9948 8.732C36.0988 8.604 36.2588 8.54 36.4748 8.54C36.5148 8.524 36.5708 8.516 36.6428 8.516C36.8028 8.516 36.9188 8.588 36.9908 8.732C37.0708 8.868 37.1108 8.992 37.1108 9.104C37.1828 9.352 37.2188 9.54 37.2188 9.668C37.2188 9.788 37.1828 9.976 37.1108 10.232C37.1828 10.312 37.2188 10.428 37.2188 10.58C37.2188 10.724 37.1828 10.88 37.1108 11.048C37.1828 11.128 37.2188 11.26 37.2188 11.444C37.2188 11.636 37.1788 11.78 37.0988 11.876C37.2028 12.012 37.2548 12.184 37.2548 12.392C37.2548 12.6 37.2068 12.776 37.1108 12.92ZM38.5956 8.444C38.4916 8.492 38.4076 8.56 38.3436 8.648C38.2796 8.736 38.2476 8.828 38.2476 8.924C38.2476 9.052 38.2996 9.18 38.4036 9.308C38.3876 9.412 38.4436 9.512 38.5716 9.608C38.6996 9.704 38.8396 9.752 38.9916 9.752C39.0956 9.752 39.1876 9.724 39.2676 9.668C39.4916 9.548 39.6036 9.396 39.6036 9.212C39.6036 9.092 39.5556 8.956 39.4596 8.804C39.4676 8.644 39.4196 8.52 39.3156 8.432C39.2196 8.336 39.1036 8.288 38.9676 8.288C38.8156 8.288 38.6916 8.34 38.5956 8.444ZM39.3756 13.748C39.4396 13.772 39.4876 13.848 39.5196 13.976C39.5596 14.104 39.5796 14.244 39.5796 14.396C39.5796 14.572 39.5516 14.688 39.4956 14.744C39.5436 14.864 39.5676 14.98 39.5676 15.092C39.5676 15.236 39.5316 15.356 39.4596 15.452C39.5156 15.588 39.5436 15.748 39.5436 15.932C39.5436 16.084 39.5196 16.208 39.4716 16.304C39.4956 16.376 39.5076 16.444 39.5076 16.508C39.5076 16.652 39.4556 16.768 39.3516 16.856C39.2476 16.936 39.1236 16.976 38.9796 16.976C38.8436 16.976 38.7276 16.936 38.6316 16.856C38.5356 16.768 38.4916 16.652 38.4996 16.508C38.4596 16.46 38.4276 16.384 38.4036 16.28C38.3796 16.176 38.3676 16.068 38.3676 15.956C38.3676 15.748 38.4116 15.612 38.4996 15.548C38.4356 15.444 38.4036 15.288 38.4036 15.08C38.4036 14.872 38.4316 14.72 38.4876 14.624C38.4556 14.592 38.4316 14.516 38.4156 14.396C38.3996 14.276 38.3916 14.144 38.3916 14C38.3916 13.864 38.3996 13.744 38.4156 13.64C38.4316 13.528 38.4556 13.456 38.4876 13.424C38.4396 13.376 38.4156 13.244 38.4156 13.028C38.4156 12.78 38.4436 12.6 38.4996 12.488C38.4596 12.424 38.4236 12.34 38.3916 12.236C38.3596 12.132 38.3436 12.036 38.3436 11.948C38.3436 11.868 38.3516 11.812 38.3676 11.78C38.3036 11.572 38.2716 11.404 38.2716 11.276C38.2716 11.14 38.3036 11 38.3676 10.856C38.3516 10.736 38.3796 10.644 38.4516 10.58C38.5236 10.516 38.6276 10.484 38.7636 10.484C39.1316 10.484 39.3156 10.708 39.3156 11.156C39.3876 11.204 39.4396 11.272 39.4716 11.36C39.5116 11.44 39.5316 11.532 39.5316 11.636C39.5316 11.804 39.4916 11.948 39.4116 12.068C39.4436 12.116 39.4676 12.188 39.4836 12.284C39.5076 12.38 39.5196 12.476 39.5196 12.572C39.5196 12.7 39.4996 12.788 39.4596 12.836C39.4916 12.876 39.5076 12.96 39.5076 13.088C39.5076 13.208 39.4916 13.336 39.4596 13.472C39.4356 13.608 39.4076 13.7 39.3756 13.748ZM42.9272 11.864C42.9432 11.952 42.9152 12.032 42.8432 12.104C42.7792 12.168 42.6992 12.204 42.6032 12.212C42.5472 12.372 42.3992 12.468 42.1592 12.5C42.1672 12.636 42.1392 12.752 42.0752 12.848C42.0112 12.936 41.9392 12.988 41.8592 13.004C41.8592 13.212 41.8152 13.428 41.7272 13.652C41.7432 13.716 41.7512 13.772 41.7512 13.82C41.7512 13.98 41.7192 14.124 41.6552 14.252C41.6952 14.332 41.7152 14.424 41.7152 14.528C41.7152 14.664 41.6912 14.804 41.6432 14.948C41.7152 15.044 41.7512 15.152 41.7512 15.272C41.7512 15.344 41.7312 15.428 41.6912 15.524C41.7152 15.572 41.7272 15.648 41.7272 15.752C41.7272 15.928 41.6912 16.056 41.6192 16.136C41.6512 16.248 41.6672 16.336 41.6672 16.4C41.6672 16.464 41.6552 16.52 41.6312 16.568C41.6312 16.704 41.5792 16.812 41.4752 16.892C41.3712 16.964 41.2472 17 41.1032 17C40.9672 17 40.8472 16.964 40.7432 16.892C40.6472 16.812 40.6032 16.704 40.6112 16.568C40.5872 16.496 40.5752 16.42 40.5752 16.34C40.5752 16.172 40.6032 16.012 40.6592 15.86C40.5872 15.764 40.5512 15.66 40.5512 15.548C40.5512 15.476 40.5712 15.392 40.6112 15.296C40.5552 15.208 40.5272 15.108 40.5272 14.996C40.5272 14.916 40.5432 14.844 40.5752 14.78C40.6072 14.716 40.6472 14.664 40.6952 14.624C40.5832 14.496 40.5272 14.348 40.5272 14.18C40.5272 14.02 40.5792 13.884 40.6832 13.772C40.6512 13.732 40.6232 13.672 40.5992 13.592C40.5752 13.512 40.5632 13.432 40.5632 13.352C40.5632 13.248 40.5872 13.172 40.6352 13.124C40.5712 12.98 40.5392 12.816 40.5392 12.632C40.5392 12.472 40.5632 12.364 40.6112 12.308C40.5392 12.148 40.5032 11.996 40.5032 11.852C40.5032 11.692 40.5392 11.576 40.6112 11.504C40.4832 11.352 40.4192 11.184 40.4192 11C40.4192 10.776 40.5152 10.612 40.7072 10.508C40.8032 10.46 40.8992 10.436 40.9952 10.436C41.1472 10.436 41.2752 10.5 41.3792 10.628C41.4832 10.748 41.5352 10.892 41.5352 11.06C41.5352 11.148 41.5152 11.24 41.4752 11.336C41.5792 11.44 41.6312 11.572 41.6312 11.732C41.6312 11.844 41.6232 11.936 41.6072 12.008C41.6712 11.776 41.7632 11.64 41.8832 11.6C41.8832 11.448 41.9312 11.308 42.0272 11.18C42.1232 11.052 42.2352 10.956 42.3632 10.892C42.4992 10.828 42.6112 10.808 42.6992 10.832C42.8992 10.616 43.1152 10.508 43.3472 10.508C43.4512 10.508 43.5432 10.528 43.6232 10.568C43.6952 10.512 43.8032 10.484 43.9472 10.484C44.0672 10.484 44.1792 10.508 44.2832 10.556C44.3872 10.596 44.4552 10.66 44.4872 10.748C44.7752 10.764 44.9792 10.884 45.0992 11.108C45.2032 11.116 45.3032 11.176 45.3992 11.288C45.5032 11.4 45.5552 11.528 45.5552 11.672C45.5552 11.736 45.5352 11.816 45.4952 11.912C45.6792 11.984 45.7712 12.124 45.7712 12.332C45.7712 12.404 45.7672 12.456 45.7592 12.488C45.8632 12.544 45.9352 12.604 45.9752 12.668C46.0232 12.724 46.0472 12.796 46.0472 12.884C46.0472 12.98 46.0232 13.108 45.9752 13.268C46.0712 13.34 46.1192 13.46 46.1192 13.628C46.1192 13.804 46.0752 13.936 45.9872 14.024C46.0592 14.144 46.0952 14.292 46.0952 14.468C46.0952 14.644 46.0552 14.784 45.9752 14.888C46.0232 15.128 46.0472 15.296 46.0472 15.392C46.0472 15.56 46.0112 15.676 45.9392 15.74C46.0032 15.884 46.0352 16.024 46.0352 16.16C46.0352 16.344 45.9912 16.48 45.9032 16.568C45.9112 16.696 45.8552 16.8 45.7352 16.88C45.6232 16.96 45.4952 17 45.3512 17C45.2392 17 45.1432 16.972 45.0632 16.916C44.9832 16.86 44.9432 16.78 44.9432 16.676C44.8792 16.524 44.8472 16.352 44.8472 16.16C44.8472 15.864 44.9192 15.648 45.0632 15.512C45.0072 15.44 44.9552 15.324 44.9072 15.164C44.8672 14.996 44.8472 14.84 44.8472 14.696C44.8472 14.496 44.8872 14.372 44.9672 14.324C44.9032 14.204 44.8712 14.08 44.8712 13.952C44.8712 13.808 44.9152 13.632 45.0032 13.424C44.9312 13.368 44.8712 13.284 44.8232 13.172C44.7752 13.06 44.7512 12.952 44.7512 12.848C44.7512 12.816 44.7592 12.768 44.7752 12.704C44.6872 12.632 44.6072 12.516 44.5352 12.356C44.4712 12.196 44.4432 12.052 44.4512 11.924C44.3792 11.916 44.3072 11.892 44.2352 11.852C44.1632 11.812 44.1072 11.756 44.0672 11.684H43.9352C43.7992 11.684 43.7032 11.656 43.6472 11.6C43.5832 11.68 43.4752 11.752 43.3232 11.816C43.1792 11.872 43.0512 11.888 42.9392 11.864H42.9272ZM47.4081 8.444C47.3041 8.492 47.2201 8.56 47.1561 8.648C47.0921 8.736 47.0601 8.828 47.0601 8.924C47.0601 9.052 47.1121 9.18 47.2161 9.308C47.2001 9.412 47.2561 9.512 47.3841 9.608C47.5121 9.704 47.6521 9.752 47.8041 9.752C47.9081 9.752 48.0001 9.724 48.0801 9.668C48.3041 9.548 48.4161 9.396 48.4161 9.212C48.4161 9.092 48.3681 8.956 48.2721 8.804C48.2801 8.644 48.2321 8.52 48.1281 8.432C48.0321 8.336 47.9161 8.288 47.7801 8.288C47.6281 8.288 47.5041 8.34 47.4081 8.444ZM48.1881 13.748C48.2521 13.772 48.3001 13.848 48.3321 13.976C48.3721 14.104 48.3921 14.244 48.3921 14.396C48.3921 14.572 48.3641 14.688 48.3081 14.744C48.3561 14.864 48.3801 14.98 48.3801 15.092C48.3801 15.236 48.3441 15.356 48.2721 15.452C48.3281 15.588 48.3561 15.748 48.3561 15.932C48.3561 16.084 48.3321 16.208 48.2841 16.304C48.3081 16.376 48.3201 16.444 48.3201 16.508C48.3201 16.652 48.2681 16.768 48.1641 16.856C48.0601 16.936 47.9361 16.976 47.7921 16.976C47.6561 16.976 47.5401 16.936 47.4441 16.856C47.3481 16.768 47.3041 16.652 47.3121 16.508C47.2721 16.46 47.2401 16.384 47.2161 16.28C47.1921 16.176 47.1801 16.068 47.1801 15.956C47.1801 15.748 47.2241 15.612 47.3121 15.548C47.2481 15.444 47.2161 15.288 47.2161 15.08C47.2161 14.872 47.2441 14.72 47.3001 14.624C47.2681 14.592 47.2441 14.516 47.2281 14.396C47.2121 14.276 47.2041 14.144 47.2041 14C47.2041 13.864 47.2121 13.744 47.2281 13.64C47.2441 13.528 47.2681 13.456 47.3001 13.424C47.2521 13.376 47.2281 13.244 47.2281 13.028C47.2281 12.78 47.2561 12.6 47.3121 12.488C47.2721 12.424 47.2361 12.34 47.2041 12.236C47.1721 12.132 47.1561 12.036 47.1561 11.948C47.1561 11.868 47.1641 11.812 47.1801 11.78C47.1161 11.572 47.0841 11.404 47.0841 11.276C47.0841 11.14 47.1161 11 47.1801 10.856C47.1641 10.736 47.1921 10.644 47.2641 10.58C47.3361 10.516 47.4401 10.484 47.5761 10.484C47.9441 10.484 48.1281 10.708 48.1281 11.156C48.2001 11.204 48.2521 11.272 48.2841 11.36C48.3241 11.44 48.3441 11.532 48.3441 11.636C48.3441 11.804 48.3041 11.948 48.2241 12.068C48.2561 12.116 48.2801 12.188 48.2961 12.284C48.3201 12.38 48.3321 12.476 48.3321 12.572C48.3321 12.7 48.3121 12.788 48.2721 12.836C48.3041 12.876 48.3201 12.96 48.3201 13.088C48.3201 13.208 48.3041 13.336 48.2721 13.472C48.2481 13.608 48.2201 13.7 48.1881 13.748ZM54.4679 16.172C54.4919 16.252 54.5039 16.336 54.5039 16.424C54.5039 16.592 54.4439 16.728 54.3239 16.832C54.2119 16.928 54.0799 16.976 53.9279 16.976C53.7759 16.976 53.6479 16.928 53.5439 16.832C53.4399 16.736 53.3879 16.596 53.3879 16.412C53.3879 16.292 53.4079 16.176 53.4479 16.064C53.3599 15.96 53.2999 15.88 53.2679 15.824C53.2359 15.76 53.2199 15.696 53.2199 15.632C53.2199 15.576 53.2399 15.48 53.2799 15.344C53.1919 15.248 53.1479 15.112 53.1479 14.936C53.1479 14.752 53.1879 14.604 53.2679 14.492C53.2359 14.412 53.2039 14.328 53.1719 14.24C53.1479 14.144 53.1359 14.052 53.1359 13.964C53.1359 13.796 53.1839 13.628 53.2799 13.46C53.1839 13.188 53.1359 12.988 53.1359 12.86C53.1359 12.78 53.1439 12.72 53.1599 12.68C53.0479 12.616 52.9479 12.536 52.8599 12.44C52.7719 12.336 52.7279 12.228 52.7279 12.116C52.6559 12.092 52.5999 12.06 52.5599 12.02C52.5279 11.972 52.4919 11.916 52.4519 11.852C52.2679 11.852 52.1239 11.832 52.0199 11.792C51.9959 11.856 51.8999 11.912 51.7319 11.96C51.5719 12.008 51.4439 12.024 51.3479 12.008C51.3239 12.128 51.2479 12.232 51.1199 12.32C50.9999 12.4 50.8759 12.436 50.7479 12.428C50.7639 12.452 50.7719 12.492 50.7719 12.548C50.7719 12.668 50.7279 12.804 50.6399 12.956C50.5599 13.108 50.4879 13.212 50.4239 13.268C50.5199 13.444 50.5679 13.616 50.5679 13.784C50.5679 13.92 50.5319 14.036 50.4599 14.132C50.5639 14.18 50.6159 14.272 50.6159 14.408C50.6159 14.488 50.5919 14.56 50.5439 14.624C50.6559 14.712 50.7119 14.888 50.7119 15.152C50.7119 15.32 50.6919 15.436 50.6519 15.5C50.7559 15.628 50.8079 15.772 50.8079 15.932C50.8079 16.1 50.7479 16.252 50.6279 16.388C50.6359 16.58 50.5919 16.728 50.4959 16.832C50.4079 16.936 50.2959 16.988 50.1599 16.988C50.0399 16.988 49.9319 16.944 49.8359 16.856C49.7479 16.76 49.7039 16.636 49.7039 16.484C49.7039 16.42 49.7079 16.372 49.7159 16.34C49.5639 16.244 49.4879 16.02 49.4879 15.668C49.4879 15.428 49.5239 15.236 49.5959 15.092C49.5559 15.02 49.5159 14.892 49.4759 14.708C49.4439 14.516 49.4279 14.34 49.4279 14.18C49.4279 14.036 49.4439 13.932 49.4759 13.868C49.3719 13.684 49.3199 13.472 49.3199 13.232C49.3199 12.984 49.3679 12.764 49.4639 12.572C49.3119 12.34 49.2359 12.116 49.2359 11.9C49.2359 11.772 49.2679 11.632 49.3319 11.48C49.2199 11.36 49.1639 11.232 49.1639 11.096C49.1639 10.96 49.2199 10.844 49.3319 10.748C49.4519 10.652 49.5879 10.604 49.7399 10.604C49.8759 10.604 49.9959 10.652 50.0999 10.748C50.2039 10.844 50.2639 10.992 50.2799 11.192C50.3199 11.248 50.3559 11.364 50.3879 11.54C50.4199 11.708 50.4319 11.832 50.4239 11.912C50.4639 11.752 50.5399 11.596 50.6519 11.444C50.8199 11.26 50.9919 11.164 51.1679 11.156C51.2239 11.044 51.3239 10.956 51.4679 10.892C51.6119 10.82 51.7679 10.784 51.9359 10.784C52.0239 10.784 52.0879 10.788 52.1279 10.796C52.1919 10.78 52.2359 10.772 52.2599 10.772C52.3639 10.772 52.4519 10.82 52.5239 10.916C52.5799 10.876 52.6519 10.856 52.7399 10.856C52.8199 10.856 52.8919 10.868 52.9559 10.892C53.0279 10.916 53.0799 10.952 53.1119 11C53.2959 11.008 53.3959 11.104 53.4119 11.288C53.5239 11.344 53.5799 11.408 53.5799 11.48C53.5799 11.52 53.5679 11.572 53.5439 11.636C53.6239 11.628 53.6839 11.656 53.7239 11.72C53.7639 11.784 53.7999 11.876 53.8319 11.996C53.8479 11.86 53.8919 11.76 53.9639 11.696C54.0359 11.632 54.1199 11.6 54.2159 11.6C54.2559 11.6 54.3079 11.608 54.3719 11.624C54.4119 11.512 54.4679 11.424 54.5399 11.36C54.6119 11.288 54.6919 11.252 54.7799 11.252C54.8039 11.252 54.8479 11.26 54.9119 11.276C54.9519 11.164 55.0199 11.076 55.1159 11.012C55.2119 10.948 55.3159 10.916 55.4279 10.916C55.4919 10.916 55.5599 10.928 55.6319 10.952C55.8319 10.808 56.0399 10.736 56.2559 10.736C56.4959 10.736 56.6999 10.812 56.8679 10.964C56.9159 10.948 56.9599 10.94 56.9999 10.94C57.1599 10.94 57.3199 10.996 57.4799 11.108C57.6479 11.212 57.7279 11.336 57.7199 11.48C57.7679 11.456 57.8159 11.444 57.8639 11.444C57.9919 11.444 58.1159 11.496 58.2359 11.6C58.3559 11.704 58.4159 11.82 58.4159 11.948C58.4159 12.004 58.3999 12.06 58.3679 12.116C58.4479 12.14 58.5039 12.204 58.5359 12.308C58.5759 12.404 58.5959 12.516 58.5959 12.644C58.5959 12.732 58.5879 12.812 58.5719 12.884C58.5559 12.948 58.5319 12.988 58.4999 13.004C58.5959 13.06 58.6439 13.148 58.6439 13.268C58.6439 13.372 58.6039 13.468 58.5239 13.556C58.5799 13.636 58.6079 13.728 58.6079 13.832C58.6079 14 58.5439 14.14 58.4159 14.252C58.5119 14.356 58.5599 14.48 58.5599 14.624C58.5599 14.736 58.5279 14.836 58.4639 14.924C58.4879 14.996 58.4999 15.064 58.4999 15.128C58.4999 15.232 58.4759 15.336 58.4279 15.44C58.3799 15.544 58.3479 15.608 58.3319 15.632C58.3879 15.712 58.4159 15.808 58.4159 15.92C58.4159 16.096 58.3519 16.236 58.2239 16.34C58.2319 16.364 58.2359 16.404 58.2359 16.46C58.2359 16.612 58.1799 16.732 58.0679 16.82C57.9639 16.908 57.8359 16.952 57.6839 16.952C57.5239 16.952 57.3879 16.904 57.2759 16.808C57.1719 16.704 57.1279 16.564 57.1439 16.388C57.1119 16.292 57.0959 16.216 57.0959 16.16C57.0959 16.024 57.1479 15.896 57.2519 15.776C57.2359 15.736 57.2279 15.668 57.2279 15.572C57.2279 15.452 57.2519 15.34 57.2999 15.236C57.2839 15.188 57.2759 15.152 57.2759 15.128C57.2759 15.064 57.2919 14.992 57.3239 14.912C57.3639 14.832 57.3879 14.784 57.3959 14.768C57.3479 14.672 57.3239 14.572 57.3239 14.468C57.3239 14.34 57.3599 14.248 57.4319 14.192C57.3759 14.136 57.3479 14.068 57.3479 13.988C57.3479 13.9 57.3839 13.796 57.4559 13.676C57.3759 13.596 57.3359 13.488 57.3359 13.352C57.3359 13.216 57.3759 13.096 57.4559 12.992C57.4079 12.952 57.3839 12.852 57.3839 12.692C57.3839 12.564 57.3919 12.444 57.4079 12.332C57.3359 12.34 57.2639 12.312 57.1919 12.248C57.1199 12.176 57.0839 12.1 57.0839 12.02C57.0279 12.036 56.9239 12.016 56.7719 11.96C56.6279 11.896 56.5519 11.84 56.5439 11.792C56.5199 11.8 56.4879 11.804 56.4479 11.804C56.3839 11.804 56.2879 11.78 56.1599 11.732C56.0079 11.892 55.8319 11.956 55.6319 11.924C55.5599 11.996 55.4639 12.064 55.3439 12.128C55.2239 12.192 55.1119 12.228 55.0079 12.236C54.9919 12.308 54.9639 12.356 54.9239 12.38C54.8919 12.404 54.8479 12.424 54.7919 12.44C54.7359 12.448 54.6919 12.456 54.6599 12.464C54.6599 12.6 54.5959 12.688 54.4679 12.728C54.4999 12.816 54.5159 12.9 54.5159 12.98C54.5159 13.044 54.5039 13.128 54.4799 13.232C54.4559 13.336 54.4359 13.42 54.4199 13.484C54.4279 13.508 54.4319 13.548 54.4319 13.604C54.4319 13.692 54.3999 13.784 54.3359 13.88C54.3519 13.944 54.3599 13.996 54.3599 14.036C54.3599 14.092 54.3439 14.168 54.3119 14.264C54.3759 14.408 54.4079 14.532 54.4079 14.636C54.4079 14.732 54.3919 14.828 54.3599 14.924C54.4399 15.028 54.4799 15.184 54.4799 15.392C54.4799 15.488 54.4679 15.572 54.4439 15.644C54.5239 15.724 54.5639 15.824 54.5639 15.944C54.5639 16.04 54.5319 16.116 54.4679 16.172ZM59.8163 12.344C59.7523 12.24 59.7203 12.14 59.7203 12.044C59.7203 11.9 59.7683 11.78 59.8643 11.684C59.8883 11.564 59.9443 11.452 60.0323 11.348C60.1203 11.236 60.2163 11.152 60.3203 11.096C60.4323 11.032 60.5203 11.008 60.5843 11.024C60.6403 10.936 60.7523 10.856 60.9202 10.784C61.0883 10.704 61.2443 10.664 61.3883 10.664C61.4203 10.664 61.4683 10.672 61.5323 10.688C61.6203 10.592 61.7363 10.544 61.8803 10.544C61.9923 10.544 62.0723 10.576 62.1203 10.64C62.2243 10.568 62.3603 10.532 62.5283 10.532C62.7283 10.532 62.9043 10.58 63.0563 10.676C63.2163 10.772 63.3083 10.9 63.3323 11.06C63.4763 11.108 63.5843 11.184 63.6563 11.288C63.7363 11.384 63.7843 11.52 63.8003 11.696C63.9043 11.8 63.9803 11.924 64.0283 12.068C64.0763 12.204 64.1003 12.344 64.1003 12.488C64.1003 12.672 64.0683 12.82 64.0043 12.932C64.0603 13.012 64.1083 13.132 64.1483 13.292C64.1883 13.452 64.2083 13.608 64.2083 13.76C64.2083 13.824 64.2003 13.904 64.1843 14C64.2403 14.12 64.2683 14.2 64.2683 14.24C64.2683 14.264 64.2563 14.32 64.2323 14.408C64.2403 14.44 64.2483 14.48 64.2563 14.528C64.2643 14.568 64.2683 14.62 64.2683 14.684C64.2683 14.804 64.2243 14.912 64.1363 15.008C64.1683 15.096 64.1843 15.204 64.1843 15.332C64.1843 15.5 64.1443 15.636 64.0643 15.74C64.0803 15.772 64.0883 15.824 64.0883 15.896C64.0883 16.064 64.0203 16.204 63.8843 16.316C63.8523 16.428 63.7923 16.516 63.7043 16.58C63.6163 16.636 63.5203 16.664 63.4163 16.664C63.3123 16.664 63.2283 16.632 63.1643 16.568C62.9563 16.656 62.7883 16.7 62.6603 16.7C62.5963 16.7 62.5483 16.696 62.5163 16.688C62.3083 16.752 62.1323 16.784 61.9883 16.784C61.8843 16.784 61.7403 16.764 61.5563 16.724C61.4443 16.788 61.3363 16.82 61.2323 16.82C61.1363 16.82 61.0483 16.792 60.9683 16.736C60.9283 16.744 60.8683 16.748 60.7883 16.748C60.4763 16.748 60.2363 16.608 60.0683 16.328C59.7643 16.152 59.6123 15.888 59.6123 15.536C59.6123 15.448 59.6163 15.38 59.6243 15.332C59.5523 15.284 59.5163 15.184 59.5163 15.032C59.5163 14.928 59.5363 14.836 59.5763 14.756C59.5443 14.612 59.5283 14.52 59.5283 14.48C59.5283 14.248 59.6403 14.04 59.8643 13.856C59.9523 13.672 60.0523 13.548 60.1643 13.484C60.2843 13.42 60.4323 13.372 60.6083 13.34C60.6563 13.204 60.7683 13.112 60.9443 13.064C61.1203 13.016 61.2923 13 61.4603 13.016C61.5083 12.984 61.5763 12.956 61.6643 12.932C61.7523 12.9 61.8403 12.884 61.9283 12.884C62.0243 12.884 62.1083 12.9 62.1803 12.932C62.1963 12.916 62.2363 12.908 62.3003 12.908C62.3483 12.908 62.3963 12.912 62.4443 12.92C62.4923 12.928 62.5243 12.94 62.5403 12.956C62.6523 12.812 62.7843 12.74 62.9363 12.74C62.9843 12.74 63.0323 12.752 63.0803 12.776V12.74C63.0803 12.604 63.1083 12.508 63.1643 12.452C63.0843 12.428 62.9963 12.36 62.9003 12.248C62.8123 12.128 62.7603 12.02 62.7443 11.924C62.6163 11.868 62.5283 11.776 62.4803 11.648C62.3843 11.72 62.2723 11.756 62.1443 11.756C62.0563 11.756 61.9723 11.732 61.8923 11.684C61.7563 11.724 61.6683 11.74 61.6283 11.732C61.5163 11.812 61.3923 11.852 61.2563 11.852C61.1363 12.012 60.9963 12.084 60.8363 12.068C60.7643 12.196 60.6643 12.308 60.5363 12.404C60.4163 12.5 60.2923 12.548 60.1643 12.548C60.0203 12.548 59.9043 12.48 59.8163 12.344ZM60.4763 15.02C60.5723 15.116 60.6203 15.208 60.6203 15.296C60.6203 15.36 60.6043 15.44 60.5723 15.536C60.6043 15.536 60.6483 15.556 60.7043 15.596C60.7683 15.628 60.8043 15.664 60.8123 15.704C60.8763 15.68 60.9563 15.668 61.0523 15.668C61.2283 15.668 61.3443 15.708 61.4003 15.788C61.4883 15.756 61.5803 15.74 61.6763 15.74C61.8283 15.74 61.9483 15.784 62.0363 15.872C62.1003 15.808 62.2043 15.756 62.3483 15.716C62.5003 15.676 62.6363 15.656 62.7563 15.656C62.8283 15.512 62.9563 15.428 63.1403 15.404C63.1563 15.348 63.2003 15.276 63.2723 15.188C63.2403 15.14 63.2123 15.076 63.1883 14.996C63.1643 14.916 63.1523 14.836 63.1523 14.756C63.1523 14.588 63.1923 14.464 63.2723 14.384C63.1843 14.272 63.1403 14.14 63.1403 13.988C63.1403 13.884 63.1563 13.796 63.1883 13.724C63.1243 13.764 63.0523 13.784 62.9723 13.784C62.9003 13.784 62.8403 13.756 62.7923 13.7C62.7203 13.772 62.6203 13.808 62.4923 13.808C62.4123 13.808 62.3323 13.788 62.2523 13.748C62.1643 13.836 62.0563 13.88 61.9283 13.88C61.8883 13.88 61.8283 13.864 61.7483 13.832C61.6283 13.952 61.5203 13.988 61.4243 13.94C61.3763 14.052 61.3123 14.128 61.2323 14.168C61.1603 14.208 61.0563 14.228 60.9202 14.228C60.8883 14.316 60.8323 14.388 60.7523 14.444C60.6803 14.5 60.6043 14.52 60.5243 14.504C60.5643 14.56 60.5843 14.624 60.5843 14.696C60.5843 14.816 60.5483 14.924 60.4763 15.02ZM66.3544 16.436C66.3864 16.612 66.3504 16.752 66.2464 16.856C66.1504 16.952 66.0304 17 65.8864 17C65.7584 17 65.6464 16.96 65.5504 16.88C65.4544 16.792 65.4064 16.672 65.4064 16.52C65.4064 16.424 65.4304 16.316 65.4784 16.196C65.4304 16.084 65.4064 15.968 65.4064 15.848C65.4064 15.752 65.4264 15.672 65.4664 15.608C65.4184 15.576 65.3824 15.528 65.3584 15.464C65.3344 15.4 65.3224 15.328 65.3224 15.248C65.3224 15.168 65.3384 15.08 65.3704 14.984C65.2984 14.896 65.2624 14.792 65.2624 14.672C65.2624 14.52 65.3184 14.396 65.4304 14.3C65.4224 14.276 65.4184 14.236 65.4184 14.18C65.4184 14.1 65.4264 14.044 65.4424 14.012C65.3544 13.9 65.3104 13.74 65.3104 13.532C65.3104 13.388 65.3384 13.276 65.3944 13.196C65.3384 13.148 65.2904 13.084 65.2504 13.004C65.2104 12.916 65.1904 12.828 65.1904 12.74C65.1904 12.644 65.2184 12.552 65.2744 12.464C65.2344 12.368 65.2144 12.284 65.2144 12.212C65.2144 12.092 65.2504 11.98 65.3224 11.876C65.2264 11.78 65.1784 11.68 65.1784 11.576C65.1784 11.496 65.2064 11.388 65.2624 11.252C65.2064 11.14 65.1784 11.02 65.1784 10.892C65.1784 10.724 65.2384 10.62 65.3584 10.58C65.3664 10.468 65.4064 10.376 65.4784 10.304C65.5504 10.232 65.6384 10.196 65.7424 10.196C65.8624 10.196 65.9664 10.256 66.0544 10.376C66.1504 10.488 66.1984 10.652 66.1984 10.868C66.1984 10.956 66.1944 11.028 66.1864 11.084C66.2184 11.068 66.2504 11.044 66.2824 11.012C66.3144 10.972 66.3544 10.944 66.4024 10.928C66.4504 10.912 66.5224 10.904 66.6184 10.904C66.6344 10.864 66.6864 10.824 66.7744 10.784C66.8704 10.744 66.9624 10.724 67.0504 10.724C67.1144 10.724 67.1584 10.732 67.1824 10.748C67.2464 10.716 67.3104 10.7 67.3744 10.7C67.4704 10.7 67.5744 10.768 67.6864 10.904C67.8784 10.888 68.0184 10.932 68.1064 11.036C68.2344 11.028 68.3464 11.044 68.4424 11.084C68.5384 11.124 68.6144 11.208 68.6704 11.336C68.8224 11.432 68.8984 11.56 68.8984 11.72C68.8984 11.856 68.8384 11.984 68.7184 12.104C68.6064 12.216 68.4824 12.272 68.3464 12.272C68.1944 12.272 68.0664 12.192 67.9624 12.032C67.8744 12.032 67.8064 12.024 67.7584 12.008C67.7104 11.992 67.6624 11.956 67.6144 11.9C67.5664 11.916 67.5264 11.924 67.4944 11.924C67.4224 11.924 67.3464 11.904 67.2664 11.864C67.1544 11.936 67.0344 11.968 66.9064 11.96C66.8584 12.072 66.7344 12.128 66.5344 12.128C66.5424 12.152 66.5464 12.192 66.5464 12.248C66.5464 12.352 66.5224 12.456 66.4744 12.56C66.4344 12.656 66.3824 12.728 66.3184 12.776C66.3824 12.928 66.4144 13.08 66.4144 13.232C66.4144 13.368 66.3824 13.472 66.3184 13.544C66.3424 13.576 66.3664 13.616 66.3904 13.664C66.4224 13.712 66.4464 13.756 66.4624 13.796C66.4784 13.86 66.4864 13.908 66.4864 13.94C66.4864 13.996 66.4664 14.072 66.4264 14.168C66.4664 14.264 66.4864 14.336 66.4864 14.384C66.4864 14.448 66.4584 14.536 66.4024 14.648C66.4504 14.728 66.4744 14.816 66.4744 14.912C66.4744 15.024 66.4464 15.12 66.3904 15.2C66.4464 15.328 66.4744 15.46 66.4744 15.596C66.4744 15.7 66.4504 15.796 66.4024 15.884C66.4424 15.964 66.4624 16.044 66.4624 16.124C66.4624 16.236 66.4264 16.34 66.3544 16.436ZM73.8114 16.568C73.8434 16.624 73.8594 16.676 73.8594 16.724C73.8594 16.836 73.8034 16.932 73.6914 17.012C73.5874 17.1 73.4674 17.144 73.3314 17.144C73.2514 17.144 73.1714 17.12 73.0914 17.072C73.0194 17.032 72.9634 16.968 72.9234 16.88C72.8354 16.84 72.7554 16.756 72.6834 16.628C72.6114 16.492 72.5794 16.376 72.5874 16.28C72.4434 16.248 72.3394 16.184 72.2754 16.088C72.2194 15.992 72.1874 15.852 72.1794 15.668C72.0674 15.604 71.9714 15.524 71.8914 15.428C71.8194 15.324 71.7954 15.22 71.8194 15.116C71.6994 15.092 71.5914 15.016 71.4954 14.888C71.4074 14.752 71.3674 14.62 71.3754 14.492C71.2154 14.452 71.1074 14.248 71.0514 13.88C71.0434 13.936 71.0114 13.992 70.9554 14.048C70.9074 14.096 70.8594 14.12 70.8114 14.12C70.7954 14.2 70.7674 14.268 70.7274 14.324C70.6874 14.38 70.6394 14.408 70.5834 14.408C70.5914 14.496 70.5794 14.584 70.5474 14.672C70.5154 14.752 70.4674 14.82 70.4034 14.876C70.4274 14.924 70.4394 14.992 70.4394 15.08C70.4394 15.2 70.4234 15.276 70.3914 15.308C70.4874 15.412 70.5354 15.512 70.5354 15.608C70.5354 15.664 70.5074 15.736 70.4514 15.824C70.5074 15.928 70.5354 16.02 70.5354 16.1C70.5354 16.18 70.5274 16.244 70.5114 16.292C70.5434 16.364 70.5594 16.444 70.5594 16.532C70.5594 16.676 70.5034 16.8 70.3914 16.904C70.2794 17 70.1554 17.048 70.0194 17.048C69.7954 17.048 69.6554 16.924 69.5994 16.676C69.5194 16.58 69.4794 16.464 69.4794 16.328C69.4794 16.264 69.4914 16.204 69.5154 16.148C69.4514 16.044 69.4194 15.916 69.4194 15.764C69.4194 15.636 69.4394 15.524 69.4794 15.428C69.4234 15.348 69.3954 15.208 69.3954 15.008C69.3954 14.76 69.4234 14.56 69.4794 14.408C69.4154 14.328 69.3834 14.24 69.3834 14.144C69.3834 14.016 69.4234 13.912 69.5034 13.832C69.4074 13.736 69.3594 13.616 69.3594 13.472C69.3594 13.4 69.3794 13.324 69.4194 13.244C69.3634 13.156 69.3354 13.068 69.3354 12.98C69.3354 12.9 69.3554 12.828 69.3954 12.764C69.3634 12.724 69.3474 12.632 69.3474 12.488C69.3474 12.336 69.3634 12.224 69.3954 12.152C69.3634 11.992 69.3474 11.904 69.3474 11.888C69.3474 11.832 69.3794 11.732 69.4434 11.588C69.3234 11.428 69.2634 11.272 69.2634 11.12C69.2634 11.024 69.2794 10.94 69.3114 10.868C69.2554 10.788 69.2274 10.692 69.2274 10.58C69.2274 10.524 69.2354 10.456 69.2514 10.376C69.2034 10.304 69.1794 10.212 69.1794 10.1C69.1794 9.98 69.2074 9.872 69.2634 9.776C69.1834 9.632 69.1434 9.504 69.1434 9.392C69.1434 9.296 69.1714 9.204 69.2274 9.116C69.1874 9.036 69.1674 8.936 69.1674 8.816C69.1674 8.624 69.2234 8.46 69.3354 8.324C69.4554 8.18 69.6074 8.124 69.7914 8.156C69.8554 8.18 69.9274 8.248 70.0074 8.36C70.0874 8.472 70.1274 8.592 70.1274 8.72L70.1154 8.816C70.2434 8.912 70.3074 9.04 70.3074 9.2C70.3074 9.312 70.2714 9.412 70.1994 9.5C70.3194 9.644 70.3794 9.792 70.3794 9.944C70.3794 10.08 70.3354 10.196 70.2474 10.292C70.3274 10.404 70.3674 10.54 70.3674 10.7C70.3674 10.844 70.3434 10.972 70.2954 11.084C70.3514 11.116 70.3954 11.18 70.4274 11.276C70.4674 11.364 70.4874 11.464 70.4874 11.576C70.4874 11.776 70.4354 11.928 70.3314 12.032C70.4114 12.112 70.4514 12.208 70.4514 12.32C70.4514 12.4 70.4354 12.484 70.4034 12.572C70.3794 12.652 70.3634 12.7 70.3554 12.716C70.4114 12.772 70.4554 12.92 70.4874 13.16L70.4994 13.172C70.5314 13.06 70.6034 12.956 70.7154 12.86C70.8274 12.756 70.9154 12.704 70.9794 12.704C71.0034 12.6 71.0834 12.476 71.2194 12.332C71.3554 12.188 71.4754 12.116 71.5794 12.116C71.5874 12.044 71.6434 11.964 71.7474 11.876C71.8594 11.788 71.9514 11.744 72.0234 11.744C72.0714 11.624 72.1514 11.516 72.2634 11.42C72.3834 11.316 72.4794 11.28 72.5514 11.312C72.5514 11.176 72.5874 11.076 72.6594 11.012C72.7394 10.94 72.8394 10.904 72.9594 10.904C73.0954 10.904 73.2154 10.944 73.3194 11.024C73.4314 11.104 73.4874 11.204 73.4874 11.324C73.4874 11.404 73.4594 11.488 73.4034 11.576C73.3554 11.752 73.2874 11.876 73.1994 11.948C73.1114 12.012 73.0034 12.052 72.8754 12.068C72.8914 12.18 72.8474 12.3 72.7434 12.428C72.6394 12.556 72.5194 12.616 72.3834 12.608C72.3674 12.728 72.2954 12.848 72.1674 12.968C72.0474 13.088 71.9234 13.144 71.7954 13.136C72.0034 13.248 72.1074 13.404 72.1074 13.604C72.1074 13.676 72.0954 13.756 72.0714 13.844C72.1514 13.86 72.2234 13.908 72.2874 13.988C72.3514 14.06 72.3754 14.14 72.3594 14.228C72.4714 14.276 72.5714 14.372 72.6594 14.516C72.7474 14.652 72.7994 14.784 72.8154 14.912C72.8954 14.944 72.9554 15 72.9954 15.08C73.0354 15.152 73.0554 15.236 73.0554 15.332C73.0554 15.388 73.0514 15.432 73.0434 15.464C73.1714 15.496 73.2754 15.58 73.3554 15.716C73.4434 15.844 73.4994 15.976 73.5234 16.112C73.6034 16.12 73.6794 16.184 73.7514 16.304C73.8234 16.416 73.8434 16.504 73.8114 16.568ZM79.4873 12.308C79.5753 12.348 79.6553 12.444 79.7273 12.596C79.8073 12.748 79.8473 12.904 79.8473 13.064C79.8473 13.336 79.7273 13.52 79.4873 13.616C79.4233 13.728 79.3353 13.816 79.2233 13.88C79.1193 13.944 79.0033 13.976 78.8753 13.976C78.7713 13.976 78.6633 13.952 78.5513 13.904C78.4873 13.944 78.3993 13.98 78.2873 14.012C78.1753 14.044 78.0633 14.06 77.9513 14.06C77.7593 14.06 77.6273 14.02 77.5553 13.94C77.4753 14.004 77.3473 14.036 77.1713 14.036C77.0433 14.036 76.9273 14.012 76.8233 13.964C76.7113 14.02 76.5833 14.048 76.4393 14.048C76.3033 14.048 76.1913 14.028 76.1033 13.988C76.0233 14.06 75.8593 14.096 75.6113 14.096C75.4753 14.096 75.3833 14.084 75.3353 14.06C75.3593 14.292 75.3273 14.464 75.2393 14.576C75.3913 14.728 75.4513 14.892 75.4193 15.068C75.4273 15.076 75.4713 15.108 75.5513 15.164C75.6313 15.22 75.6873 15.312 75.7193 15.44C75.8073 15.44 75.8873 15.476 75.9593 15.548C76.0393 15.62 76.0873 15.692 76.1033 15.764C76.1353 15.732 76.1993 15.716 76.2953 15.716C76.3673 15.716 76.4313 15.728 76.4873 15.752C76.5433 15.776 76.5753 15.804 76.5833 15.836C76.6393 15.804 76.7033 15.788 76.7753 15.788C76.8793 15.788 76.9753 15.824 77.0633 15.896C77.1433 15.88 77.2033 15.872 77.2433 15.872C77.3233 15.872 77.3913 15.884 77.4473 15.908C77.4713 15.844 77.5353 15.784 77.6393 15.728C77.7433 15.664 77.8513 15.636 77.9633 15.644C78.0273 15.564 78.1153 15.5 78.2273 15.452C78.3393 15.404 78.4513 15.38 78.5633 15.38C78.7793 15.38 78.9353 15.468 79.0313 15.644C79.0633 15.708 79.0793 15.784 79.0793 15.872C79.0793 16.064 78.9913 16.216 78.8153 16.328C78.7753 16.352 78.7073 16.396 78.6113 16.46C78.5153 16.516 78.4273 16.56 78.3473 16.592C78.2673 16.624 78.1953 16.64 78.1313 16.64C78.0113 16.784 77.8473 16.856 77.6393 16.856C77.5433 16.856 77.4713 16.848 77.4233 16.832C77.3273 16.912 77.1873 16.952 77.0033 16.952C76.8353 16.952 76.7193 16.92 76.6553 16.856C76.5993 16.88 76.5433 16.892 76.4873 16.892C76.3753 16.892 76.2713 16.852 76.1753 16.772C75.7673 16.796 75.4913 16.668 75.3473 16.388C75.2353 16.388 75.1073 16.32 74.9633 16.184C74.8273 16.04 74.7513 15.916 74.7353 15.812C74.5513 15.74 74.4353 15.608 74.3873 15.416C74.3793 15.352 74.3793 15.292 74.3873 15.236C74.3553 15.228 74.3273 15.196 74.3033 15.14C74.2873 15.076 74.2793 15.012 74.2793 14.948C74.2793 14.9 74.2833 14.868 74.2913 14.852C74.2273 14.66 74.1953 14.484 74.1953 14.324C74.1953 14.164 74.2273 14.02 74.2913 13.892C74.2433 13.804 74.2193 13.708 74.2193 13.604C74.2193 13.476 74.2473 13.348 74.3033 13.22C74.3593 13.092 74.4113 13.008 74.4593 12.968C74.4433 12.928 74.4553 12.86 74.4953 12.764C74.5353 12.66 74.5873 12.568 74.6513 12.488C74.7233 12.4 74.7953 12.348 74.8673 12.332L74.8553 12.2C74.8553 11.888 75.0233 11.692 75.3593 11.612C75.3593 11.476 75.4393 11.344 75.5993 11.216C75.7593 11.088 75.8993 11.032 76.0193 11.048C76.0353 10.96 76.1113 10.892 76.2473 10.844C76.3913 10.788 76.4993 10.772 76.5713 10.796C76.6353 10.692 76.7633 10.62 76.9553 10.58C77.0273 10.5 77.1313 10.46 77.2673 10.46C77.3073 10.46 77.3593 10.468 77.4233 10.484L77.5313 10.472C77.6273 10.472 77.7073 10.492 77.7713 10.532C77.8433 10.564 77.8753 10.604 77.8673 10.652C78.0433 10.668 78.1913 10.708 78.3113 10.772C78.4313 10.836 78.5033 10.952 78.5273 11.12C78.6313 11.096 78.7633 11.124 78.9233 11.204C79.0833 11.276 79.2193 11.392 79.3313 11.552C79.4513 11.704 79.5113 11.884 79.5113 12.092C79.5113 12.14 79.5033 12.212 79.4873 12.308ZM77.7233 13.088C77.8033 12.976 77.9993 12.92 78.3113 12.92C78.4873 12.92 78.6233 12.936 78.7193 12.968C78.6553 12.936 78.5953 12.868 78.5393 12.764C78.4913 12.652 78.4673 12.548 78.4673 12.452C78.4673 12.388 78.4793 12.34 78.5033 12.308C78.3913 12.316 78.2953 12.288 78.2153 12.224C78.1433 12.152 78.0753 12.072 78.0113 11.984C77.9553 11.896 77.9113 11.832 77.8793 11.792C77.8393 11.816 77.7553 11.796 77.6273 11.732C77.5073 11.66 77.4433 11.588 77.4353 11.516C77.4033 11.556 77.3353 11.592 77.2313 11.624C77.1273 11.648 77.0473 11.656 76.9913 11.648C76.9673 11.688 76.9113 11.728 76.8233 11.768C76.7353 11.808 76.6433 11.82 76.5473 11.804C76.4673 11.956 76.3833 12.08 76.2953 12.176C76.2073 12.272 76.0953 12.344 75.9593 12.392C75.9433 12.504 75.8913 12.628 75.8033 12.764C75.7233 12.9 75.6393 13.004 75.5513 13.076L75.5993 13.088C75.7113 13.008 75.8633 12.968 76.0553 12.968C76.1673 12.968 76.2713 12.98 76.3673 13.004C76.4713 13.028 76.5433 13.056 76.5833 13.088C76.7753 12.968 76.9873 12.908 77.2193 12.908C77.4113 12.908 77.5793 12.968 77.7233 13.088ZM84.0253 15.968C84.0333 15.928 84.0533 15.9 84.0853 15.884C84.1253 15.868 84.1693 15.856 84.2173 15.848C84.2493 15.84 84.2893 15.836 84.3373 15.836C84.4733 15.836 84.5813 15.888 84.6613 15.992C84.7493 16.088 84.7933 16.204 84.7933 16.34C84.7933 16.444 84.7653 16.536 84.7093 16.616C84.6533 16.688 84.5693 16.74 84.4573 16.772C84.2893 16.916 84.0893 16.976 83.8573 16.952C83.7933 17.008 83.7093 17.036 83.6053 17.036C83.4613 17.036 83.3293 16.984 83.2093 16.88C83.1293 16.864 83.0333 16.824 82.9213 16.76C82.8093 16.688 82.7533 16.624 82.7533 16.568C82.6413 16.552 82.5253 16.488 82.4053 16.376C82.2933 16.264 82.2533 16.128 82.2853 15.968C82.1973 15.872 82.1453 15.772 82.1293 15.668C82.0333 15.62 81.9613 15.548 81.9133 15.452C81.8733 15.356 81.8613 15.256 81.8773 15.152C81.7733 15.056 81.7213 14.912 81.7213 14.72C81.7213 14.648 81.7293 14.556 81.7453 14.444C81.6333 14.356 81.5773 14.236 81.5773 14.084C81.5773 13.948 81.6213 13.836 81.7093 13.748C81.6133 13.652 81.5653 13.528 81.5653 13.376C81.5653 13.32 81.5813 13.252 81.6133 13.172C81.5653 13.076 81.5413 12.98 81.5413 12.884C81.5413 12.756 81.5773 12.656 81.6493 12.584C81.6013 12.488 81.5773 12.384 81.5773 12.272C81.5773 12.176 81.5893 12.092 81.6133 12.02C81.6453 11.94 81.6813 11.88 81.7213 11.84C81.6333 11.736 81.5893 11.624 81.5893 11.504C81.5893 11.44 81.6013 11.372 81.6253 11.3C81.5533 11.324 81.4733 11.336 81.3853 11.336C81.2493 11.336 81.1493 11.308 81.0853 11.252C80.9893 11.276 80.9053 11.288 80.8333 11.288C80.6893 11.288 80.5413 11.244 80.3893 11.156C80.3093 11.204 80.2253 11.228 80.1373 11.228C80.0093 11.228 79.9053 11.176 79.8253 11.072C79.7373 10.96 79.6933 10.836 79.6933 10.7C79.6933 10.58 79.7333 10.48 79.8133 10.4C79.8853 10.312 79.9933 10.264 80.1373 10.256C80.2333 10.216 80.3213 10.196 80.4013 10.196C80.5613 10.196 80.7013 10.236 80.8213 10.316C80.9253 10.276 81.0413 10.256 81.1693 10.256C81.2813 10.256 81.3693 10.276 81.4333 10.316C81.4413 10.284 81.4733 10.256 81.5293 10.232C81.5933 10.2 81.6453 10.188 81.6853 10.196C81.6533 10.124 81.6373 10.028 81.6373 9.908C81.6373 9.764 81.6693 9.688 81.7333 9.68C81.6773 9.6 81.6493 9.484 81.6493 9.332C81.6493 9.124 81.7013 8.98 81.8053 8.9C81.7973 8.74 81.8293 8.62 81.9013 8.54C81.9733 8.46 82.0653 8.42 82.1773 8.42C82.2893 8.42 82.3933 8.46 82.4893 8.54C82.5853 8.612 82.6333 8.708 82.6333 8.828C82.6333 8.908 82.6013 9 82.5373 9.104C82.6173 9.176 82.6573 9.296 82.6573 9.464C82.6573 9.536 82.6453 9.612 82.6213 9.692C82.6053 9.764 82.5813 9.82 82.5493 9.86C82.5973 9.892 82.6213 9.956 82.6213 10.052C82.6213 10.132 82.6013 10.24 82.5613 10.376C82.6333 10.352 82.7093 10.34 82.7893 10.34C82.9093 10.34 83.0013 10.368 83.0653 10.424C83.1453 10.384 83.2093 10.364 83.2573 10.364C83.3373 10.364 83.4013 10.396 83.4493 10.46C83.5053 10.42 83.5733 10.4 83.6533 10.4C83.7653 10.4 83.8533 10.444 83.9173 10.532C84.0693 10.532 84.1813 10.568 84.2533 10.64C84.3333 10.704 84.3733 10.788 84.3733 10.892C84.3733 11.02 84.3213 11.144 84.2173 11.264C84.1213 11.376 84.0093 11.432 83.8813 11.432C83.8093 11.432 83.7373 11.408 83.6653 11.36C83.5853 11.424 83.4813 11.456 83.3533 11.456C83.2333 11.456 83.1333 11.428 83.0533 11.372C82.9493 11.412 82.8733 11.432 82.8253 11.432C82.7613 11.432 82.6853 11.404 82.5973 11.348C82.6693 11.444 82.7053 11.548 82.7053 11.66C82.7053 11.78 82.6573 11.888 82.5613 11.984C82.6333 12.08 82.6693 12.2 82.6693 12.344C82.6693 12.472 82.6333 12.592 82.5613 12.704C82.6573 12.768 82.7053 12.872 82.7053 13.016C82.7053 13.136 82.6693 13.24 82.5973 13.328C82.6773 13.416 82.7173 13.572 82.7173 13.796C82.7173 13.892 82.7053 13.972 82.6813 14.036C82.7373 14.116 82.7653 14.2 82.7653 14.288C82.7653 14.336 82.7533 14.4 82.7293 14.48C82.7133 14.552 82.7013 14.612 82.6933 14.66C82.7893 14.772 82.8373 14.88 82.8373 14.984C82.9733 15.088 83.0413 15.212 83.0413 15.356C83.2013 15.444 83.2813 15.592 83.2813 15.8C83.2973 15.824 83.3133 15.84 83.3293 15.848C83.3453 15.856 83.3573 15.864 83.3653 15.872L83.4493 15.86C83.5693 15.86 83.6653 15.896 83.7373 15.968C83.8013 15.952 83.8533 15.944 83.8933 15.944C83.9173 15.944 83.9613 15.952 84.0253 15.968ZM40.6568 28.04C40.7608 28.192 40.8128 28.364 40.8128 28.556C40.8128 28.604 40.8048 28.66 40.7888 28.724C40.8208 28.82 40.8368 28.896 40.8368 28.952C40.8368 29.088 40.7968 29.196 40.7168 29.276C40.7328 29.34 40.7408 29.404 40.7408 29.468C40.7408 29.564 40.7248 29.66 40.6928 29.756C40.6688 29.852 40.6288 29.928 40.5728 29.984C40.5888 30.048 40.5968 30.1 40.5968 30.14C40.5968 30.276 40.5568 30.416 40.4768 30.56C40.4048 30.696 40.3128 30.784 40.2008 30.824C40.2008 31.008 40.1448 31.164 40.0328 31.292C39.9288 31.42 39.7808 31.488 39.5888 31.496C39.5408 31.576 39.4288 31.656 39.2528 31.736C39.0848 31.816 38.9528 31.848 38.8568 31.832C38.7528 31.944 38.6448 32 38.5328 32C38.4128 32 38.2968 31.952 38.1848 31.856C38.1608 31.872 38.1088 31.88 38.0288 31.88C37.8848 31.88 37.7528 31.844 37.6328 31.772C37.5928 31.74 37.5328 31.732 37.4528 31.748C37.4288 31.764 37.3888 31.772 37.3328 31.772C37.1888 31.772 37.0488 31.692 36.9128 31.532C36.7688 31.54 36.6408 31.5 36.5288 31.412C36.4248 31.316 36.3648 31.228 36.3488 31.148C36.2128 31.164 36.0848 31.136 35.9648 31.064C35.8528 30.992 35.7808 30.892 35.7488 30.764C35.5568 30.74 35.3888 30.656 35.2448 30.512C35.1088 30.368 35.0368 30.2 35.0288 30.008C34.9488 29.984 34.8768 29.94 34.8128 29.876C34.7488 29.812 34.7168 29.752 34.7168 29.696C34.5968 29.6 34.5368 29.48 34.5368 29.336C34.5368 29.264 34.5448 29.208 34.5608 29.168C34.4808 29.088 34.4208 28.98 34.3808 28.844C34.3488 28.708 34.3328 28.572 34.3328 28.436C34.2608 28.372 34.2088 28.276 34.1768 28.148C34.1448 28.02 34.1328 27.888 34.1408 27.752C34.1168 27.664 34.1048 27.572 34.1048 27.476C34.1048 27.284 34.1488 27.132 34.2368 27.02C34.1968 26.956 34.1768 26.868 34.1768 26.756C34.1768 26.66 34.1968 26.572 34.2368 26.492C34.2768 26.412 34.3248 26.364 34.3808 26.348C34.3728 26.308 34.3688 26.244 34.3688 26.156C34.3688 26.004 34.3968 25.86 34.4528 25.724C34.5168 25.588 34.5928 25.488 34.6808 25.424C34.6648 25.312 34.6848 25.188 34.7408 25.052C34.7968 24.916 34.8768 24.796 34.9808 24.692C35.0928 24.588 35.2168 24.536 35.3528 24.536C35.3608 24.392 35.4088 24.26 35.4968 24.14C35.5928 24.012 35.7008 23.944 35.8208 23.936C35.8688 23.848 35.9528 23.776 36.0728 23.72C36.1928 23.664 36.3168 23.636 36.4448 23.636C36.5088 23.636 36.5568 23.64 36.5888 23.648C36.6208 23.576 36.6968 23.524 36.8168 23.492C36.9368 23.452 37.0688 23.432 37.2128 23.432C37.4128 23.432 37.5368 23.46 37.5848 23.516C37.6408 23.484 37.7208 23.468 37.8248 23.468C37.9848 23.468 38.1488 23.504 38.3168 23.576C38.4928 23.64 38.5968 23.72 38.6288 23.816C38.7088 23.8 38.7648 23.792 38.7968 23.792C38.9488 23.792 39.0768 23.844 39.1808 23.948C39.2928 24.052 39.3568 24.188 39.3728 24.356C39.4928 24.34 39.5848 24.38 39.6488 24.476C39.7208 24.564 39.7568 24.668 39.7568 24.788C39.7568 24.852 39.7488 24.896 39.7328 24.92C39.8128 24.976 39.8808 25.056 39.9368 25.16C39.9928 25.264 40.0208 25.364 40.0208 25.46C40.0208 25.58 39.9728 25.672 39.8768 25.736C39.8528 25.824 39.8048 25.892 39.7328 25.94C39.6608 25.98 39.5768 26 39.4808 26C39.3768 26 39.2848 25.976 39.2048 25.928C39.1248 25.872 39.0688 25.8 39.0368 25.712C38.9248 25.68 38.8328 25.612 38.7608 25.508C38.6968 25.404 38.6728 25.292 38.6888 25.172C38.6248 25.116 38.5648 25.048 38.5088 24.968C38.4608 24.88 38.4368 24.8 38.4368 24.728C38.3728 24.744 38.3288 24.752 38.3048 24.752C38.2328 24.752 38.1688 24.736 38.1128 24.704C38.0648 24.672 38.0328 24.632 38.0168 24.584C37.9688 24.608 37.9208 24.62 37.8728 24.62C37.7688 24.62 37.6648 24.576 37.5608 24.488L37.3568 24.5C37.2928 24.5 37.2248 24.484 37.1528 24.452C37.1128 24.54 37.0528 24.608 36.9728 24.656C36.8928 24.704 36.8048 24.728 36.7088 24.728C36.6368 24.728 36.5808 24.72 36.5408 24.704C36.4848 24.832 36.4288 24.932 36.3728 25.004C36.3248 25.076 36.2648 25.124 36.1928 25.148C36.1528 25.292 36.0288 25.4 35.8208 25.472C35.7808 25.64 35.7408 25.768 35.7008 25.856C35.6608 25.944 35.5848 26.036 35.4728 26.132C35.4808 26.156 35.4848 26.2 35.4848 26.264C35.4848 26.376 35.4568 26.496 35.4008 26.624C35.3528 26.752 35.2928 26.86 35.2208 26.948C35.2528 27.044 35.2688 27.156 35.2688 27.284C35.2688 27.46 35.2248 27.644 35.1368 27.836C35.2328 27.884 35.2928 27.94 35.3168 28.004C35.3408 28.06 35.3488 28.124 35.3408 28.196C35.3408 28.268 35.3408 28.32 35.3408 28.352C35.4288 28.44 35.4888 28.556 35.5208 28.7C35.5608 28.836 35.5728 28.948 35.5568 29.036C35.7248 29.164 35.8408 29.272 35.9048 29.36C35.9768 29.448 36.0288 29.576 36.0608 29.744C36.1488 29.728 36.2648 29.776 36.4088 29.888C36.5528 30 36.6208 30.096 36.6128 30.176C36.7328 30.184 36.8528 30.232 36.9728 30.32C37.1008 30.4 37.1968 30.5 37.2608 30.62C37.3008 30.596 37.3488 30.584 37.4048 30.584C37.4848 30.584 37.5808 30.604 37.6928 30.644C37.8048 30.684 37.8968 30.728 37.9688 30.776C38.0008 30.76 38.0608 30.752 38.1488 30.752C38.2848 30.752 38.3808 30.764 38.4368 30.788C38.5248 30.724 38.6208 30.692 38.7248 30.692C38.7728 30.692 38.8368 30.708 38.9168 30.74C39.0688 30.652 39.1928 30.612 39.2888 30.62C39.2728 30.308 39.3648 30.12 39.5648 30.056C39.5328 30 39.5168 29.936 39.5168 29.864C39.5168 29.712 39.5768 29.584 39.6968 29.48C39.6648 29.32 39.6488 29.208 39.6488 29.144C39.6488 29.024 39.6928 28.924 39.7808 28.844C39.7328 28.796 39.7088 28.748 39.7088 28.7C39.7088 28.636 39.7328 28.588 39.7808 28.556C39.6688 28.492 39.6128 28.396 39.6128 28.268C39.6128 28.22 39.6168 28.184 39.6248 28.16C39.5608 28.176 39.5208 28.184 39.5048 28.184C39.4328 28.184 39.3368 28.14 39.2168 28.052C39.1688 28.132 39.0648 28.172 38.9048 28.172C38.8248 28.172 38.7608 28.16 38.7128 28.136C38.6568 28.192 38.5728 28.22 38.4608 28.22C38.3168 28.22 38.2128 28.184 38.1488 28.112C38.0368 28.192 37.8848 28.232 37.6928 28.232L37.4768 28.22C37.3568 28.212 37.2528 28.156 37.1648 28.052C37.0848 27.94 37.0448 27.816 37.0448 27.68C37.0448 27.504 37.1448 27.36 37.3448 27.248C37.5528 27.136 37.7808 27.08 38.0288 27.08C38.2128 27.08 38.3488 27.108 38.4368 27.164C38.5008 27.124 38.5928 27.092 38.7128 27.068C38.8408 27.036 38.9688 27.02 39.0968 27.02C39.2408 27.02 39.3688 27.044 39.4808 27.092C39.5688 27.06 39.6608 27.044 39.7568 27.044C39.9488 27.044 40.0928 27.116 40.1888 27.26C40.5168 27.324 40.6728 27.584 40.6568 28.04ZM45.2658 31.856C45.1698 31.952 45.0218 32 44.8218 32C44.6698 32 44.5458 31.976 44.4498 31.928C44.3058 31.96 44.1778 31.976 44.0658 31.976C43.7538 31.976 43.5298 31.896 43.3938 31.736C43.3618 31.744 43.3178 31.748 43.2618 31.748C43.0778 31.748 42.9378 31.664 42.8418 31.496C42.7618 31.504 42.6578 31.464 42.5298 31.376C42.4098 31.28 42.3578 31.188 42.3738 31.1C42.2458 31.068 42.1378 30.992 42.0498 30.872C41.9698 30.744 41.9338 30.6 41.9418 30.44C41.8538 30.408 41.7858 30.344 41.7378 30.248C41.6898 30.152 41.6658 30.044 41.6658 29.924C41.6658 29.796 41.6858 29.704 41.7258 29.648C41.6378 29.512 41.5938 29.356 41.5938 29.18C41.5938 28.996 41.6498 28.848 41.7618 28.736C41.6738 28.672 41.6298 28.576 41.6298 28.448C41.6298 28.368 41.6498 28.288 41.6898 28.208C41.7298 28.128 41.7818 28.072 41.8458 28.04C41.8298 27.928 41.8418 27.824 41.8818 27.728C41.9298 27.624 41.9938 27.548 42.0738 27.5C42.0578 27.476 42.0498 27.44 42.0498 27.392C42.0498 27.32 42.0738 27.248 42.1218 27.176C42.1778 27.104 42.2378 27.06 42.3018 27.044C42.2938 27.02 42.2898 26.988 42.2898 26.948C42.2898 26.78 42.3538 26.636 42.4818 26.516C42.6098 26.388 42.7338 26.332 42.8538 26.348C42.8538 26.236 42.9018 26.144 42.9978 26.072C43.1018 25.992 43.2338 25.952 43.3938 25.952C43.4658 25.952 43.5218 25.956 43.5618 25.964C43.6178 25.844 43.7138 25.748 43.8498 25.676C43.9858 25.596 44.1258 25.556 44.2698 25.556C44.3658 25.556 44.4458 25.576 44.5098 25.616C44.6218 25.52 44.7618 25.472 44.9298 25.472C45.0658 25.472 45.1858 25.504 45.2898 25.568C45.4018 25.632 45.4698 25.72 45.4938 25.832C45.6218 25.832 45.7578 25.88 45.9018 25.976C46.0458 26.064 46.1298 26.156 46.1538 26.252C46.3458 26.308 46.5298 26.432 46.7058 26.624C46.8898 26.808 46.9818 26.996 46.9818 27.188C46.9818 27.22 46.9738 27.268 46.9578 27.332C47.3018 27.404 47.4578 27.752 47.4258 28.376C47.4978 28.496 47.5338 28.624 47.5338 28.76C47.5338 28.92 47.4818 29.08 47.3778 29.24C47.4018 29.312 47.4138 29.38 47.4138 29.444C47.4138 29.54 47.3938 29.632 47.3538 29.72C47.3138 29.808 47.2618 29.876 47.1978 29.924C47.2058 30.052 47.1818 30.156 47.1258 30.236C47.0778 30.316 46.9858 30.424 46.8498 30.56C46.8578 30.592 46.8618 30.64 46.8618 30.704C46.8618 30.944 46.7258 31.1 46.4538 31.172C46.4298 31.3 46.3618 31.404 46.2498 31.484C46.1458 31.564 46.0178 31.604 45.8658 31.604C45.7378 31.78 45.5818 31.868 45.3978 31.868C45.3418 31.868 45.2978 31.864 45.2658 31.856ZM44.1378 31.016C44.2018 30.96 44.3098 30.932 44.4618 30.932C44.5738 30.932 44.6338 30.948 44.6418 30.98C44.7058 30.908 44.7858 30.852 44.8818 30.812C44.9778 30.772 45.0658 30.756 45.1458 30.764C45.2818 30.628 45.4298 30.56 45.5898 30.56C45.6458 30.56 45.6858 30.564 45.7098 30.572C45.7018 30.5 45.7218 30.432 45.7698 30.368C45.8178 30.296 45.8738 30.248 45.9378 30.224C45.9378 30.12 45.9618 30.032 46.0098 29.96C46.0658 29.88 46.1338 29.82 46.2138 29.78C46.2138 29.62 46.2458 29.492 46.3098 29.396C46.2858 29.332 46.2738 29.268 46.2738 29.204C46.2738 29.116 46.2938 29.032 46.3338 28.952C46.3738 28.864 46.4298 28.792 46.5018 28.736C46.4218 28.664 46.3818 28.576 46.3818 28.472C46.3818 28.376 46.4098 28.28 46.4658 28.184C46.3058 28.088 46.1978 27.996 46.1418 27.908C46.0938 27.812 46.0698 27.64 46.0698 27.392C45.9978 27.4 45.9218 27.36 45.8418 27.272C45.7698 27.184 45.7258 27.084 45.7098 26.972C45.6218 26.996 45.5138 26.972 45.3858 26.9C45.2658 26.82 45.2058 26.72 45.2058 26.6C45.1418 26.632 45.0658 26.648 44.9778 26.648C44.8098 26.648 44.6738 26.588 44.5698 26.468C44.4818 26.556 44.3658 26.628 44.2218 26.684C44.0858 26.732 43.9658 26.748 43.8618 26.732C43.8538 26.812 43.7818 26.908 43.6458 27.02C43.5178 27.124 43.4018 27.192 43.2978 27.224C43.3218 27.272 43.3338 27.328 43.3338 27.392C43.3338 27.472 43.3138 27.552 43.2738 27.632C43.2338 27.712 43.1778 27.78 43.1058 27.836C43.1138 27.948 43.0858 28.056 43.0218 28.16C42.9658 28.264 42.8858 28.336 42.7818 28.376C42.7978 28.44 42.8058 28.492 42.8058 28.532C42.8058 28.644 42.7778 28.732 42.7218 28.796C42.7458 28.852 42.7578 28.908 42.7578 28.964C42.7578 29.052 42.7138 29.148 42.6258 29.252C42.8258 29.388 42.9258 29.584 42.9258 29.84C42.9258 29.976 42.9018 30.092 42.8538 30.188C42.9338 30.196 42.9898 30.22 43.0218 30.26C43.0538 30.3 43.0818 30.364 43.1058 30.452C43.3058 30.476 43.4538 30.572 43.5498 30.74C43.6378 30.74 43.7458 30.768 43.8738 30.824C44.0098 30.88 44.0978 30.944 44.1378 31.016ZM50.8139 26.864C50.8299 26.952 50.8019 27.032 50.7299 27.104C50.6659 27.168 50.5859 27.204 50.4899 27.212C50.4339 27.372 50.2859 27.468 50.0459 27.5C50.0539 27.636 50.0259 27.752 49.9619 27.848C49.8979 27.936 49.8259 27.988 49.7459 28.004C49.7459 28.212 49.7019 28.428 49.6139 28.652C49.6299 28.716 49.6379 28.772 49.6379 28.82C49.6379 28.98 49.6059 29.124 49.5419 29.252C49.5819 29.332 49.6019 29.424 49.6019 29.528C49.6019 29.664 49.5779 29.804 49.5299 29.948C49.6019 30.044 49.6379 30.152 49.6379 30.272C49.6379 30.344 49.6179 30.428 49.5779 30.524C49.6019 30.572 49.6139 30.648 49.6139 30.752C49.6139 30.928 49.5779 31.056 49.5059 31.136C49.5379 31.248 49.5539 31.336 49.5539 31.4C49.5539 31.464 49.5419 31.52 49.5179 31.568C49.5179 31.704 49.4659 31.812 49.3619 31.892C49.2579 31.964 49.1339 32 48.9899 32C48.8539 32 48.7339 31.964 48.6299 31.892C48.5339 31.812 48.4899 31.704 48.4979 31.568C48.4739 31.496 48.4619 31.42 48.4619 31.34C48.4619 31.172 48.4899 31.012 48.5459 30.86C48.4739 30.764 48.4379 30.66 48.4379 30.548C48.4379 30.476 48.4579 30.392 48.4979 30.296C48.4419 30.208 48.4139 30.108 48.4139 29.996C48.4139 29.916 48.4299 29.844 48.4619 29.78C48.4939 29.716 48.5339 29.664 48.5819 29.624C48.4699 29.496 48.4139 29.348 48.4139 29.18C48.4139 29.02 48.4659 28.884 48.5699 28.772C48.5379 28.732 48.5099 28.672 48.4859 28.592C48.4619 28.512 48.4499 28.432 48.4499 28.352C48.4499 28.248 48.4739 28.172 48.5219 28.124C48.4579 27.98 48.4259 27.816 48.4259 27.632C48.4259 27.472 48.4499 27.364 48.4979 27.308C48.4259 27.148 48.3899 26.996 48.3899 26.852C48.3899 26.692 48.4259 26.576 48.4979 26.504C48.3699 26.352 48.3059 26.184 48.3059 26C48.3059 25.776 48.4019 25.612 48.5939 25.508C48.6899 25.46 48.7859 25.436 48.8819 25.436C49.0339 25.436 49.1619 25.5 49.2659 25.628C49.3699 25.748 49.4219 25.892 49.4219 26.06C49.4219 26.148 49.4019 26.24 49.3619 26.336C49.4659 26.44 49.5179 26.572 49.5179 26.732C49.5179 26.844 49.5099 26.936 49.4939 27.008C49.5579 26.776 49.6499 26.64 49.7699 26.6C49.7699 26.448 49.8179 26.308 49.9139 26.18C50.0099 26.052 50.1219 25.956 50.2499 25.892C50.3859 25.828 50.4979 25.808 50.5859 25.832C50.7859 25.616 51.0019 25.508 51.2339 25.508C51.3379 25.508 51.4299 25.528 51.5099 25.568C51.5819 25.512 51.6899 25.484 51.8339 25.484C51.9539 25.484 52.0659 25.508 52.1699 25.556C52.2739 25.596 52.3419 25.66 52.3739 25.748C52.6619 25.764 52.8659 25.884 52.9859 26.108C53.0899 26.116 53.1899 26.176 53.2859 26.288C53.3899 26.4 53.4419 26.528 53.4419 26.672C53.4419 26.736 53.4219 26.816 53.3819 26.912C53.5659 26.984 53.6579 27.124 53.6579 27.332C53.6579 27.404 53.6539 27.456 53.6459 27.488C53.7499 27.544 53.8219 27.604 53.8619 27.668C53.9099 27.724 53.9339 27.796 53.9339 27.884C53.9339 27.98 53.9099 28.108 53.8619 28.268C53.9579 28.34 54.0059 28.46 54.0059 28.628C54.0059 28.804 53.9619 28.936 53.8739 29.024C53.9459 29.144 53.9819 29.292 53.9819 29.468C53.9819 29.644 53.9419 29.784 53.8619 29.888C53.9099 30.128 53.9339 30.296 53.9339 30.392C53.9339 30.56 53.8979 30.676 53.8259 30.74C53.8899 30.884 53.9219 31.024 53.9219 31.16C53.9219 31.344 53.8779 31.48 53.7899 31.568C53.7979 31.696 53.7419 31.8 53.6219 31.88C53.5099 31.96 53.3819 32 53.2379 32C53.1259 32 53.0299 31.972 52.9499 31.916C52.8699 31.86 52.8299 31.78 52.8299 31.676C52.7659 31.524 52.7339 31.352 52.7339 31.16C52.7339 30.864 52.8059 30.648 52.9499 30.512C52.8939 30.44 52.8419 30.324 52.7939 30.164C52.7539 29.996 52.7339 29.84 52.7339 29.696C52.7339 29.496 52.7739 29.372 52.8539 29.324C52.7899 29.204 52.7579 29.08 52.7579 28.952C52.7579 28.808 52.8019 28.632 52.8899 28.424C52.8179 28.368 52.7579 28.284 52.7099 28.172C52.6619 28.06 52.6379 27.952 52.6379 27.848C52.6379 27.816 52.6459 27.768 52.6619 27.704C52.5739 27.632 52.4939 27.516 52.4219 27.356C52.3579 27.196 52.3299 27.052 52.3379 26.924C52.2659 26.916 52.1939 26.892 52.1219 26.852C52.0499 26.812 51.9939 26.756 51.9539 26.684H51.8219C51.6859 26.684 51.5899 26.656 51.5339 26.6C51.4699 26.68 51.3619 26.752 51.2099 26.816C51.0659 26.872 50.9379 26.888 50.8259 26.864H50.8139ZM59.6868 30.776C59.7428 30.728 59.8308 30.704 59.9508 30.704C60.0948 30.712 60.2068 30.768 60.2868 30.872C60.3668 30.968 60.4068 31.084 60.4068 31.22C60.4068 31.34 60.3708 31.448 60.2988 31.544C60.2348 31.64 60.1388 31.696 60.0108 31.712C59.9148 31.784 59.8148 31.82 59.7108 31.82C59.6308 31.82 59.5428 31.804 59.4468 31.772C59.3588 31.74 59.3028 31.72 59.2788 31.712C59.1508 31.8 58.9868 31.844 58.7868 31.844C58.7148 31.844 58.6308 31.828 58.5348 31.796C58.4068 31.868 58.2908 31.904 58.1868 31.904C58.0428 31.904 57.9228 31.84 57.8268 31.712C57.7868 31.768 57.7148 31.812 57.6108 31.844C57.5148 31.876 57.4108 31.892 57.2988 31.892C57.1548 31.892 57.0348 31.868 56.9388 31.82C56.7868 31.908 56.5988 31.952 56.3748 31.952C56.2148 31.952 56.0908 31.932 56.0028 31.892C55.8748 31.956 55.7468 31.988 55.6188 31.988C55.5308 31.988 55.4188 31.964 55.2828 31.916C55.0668 31.828 54.9588 31.676 54.9588 31.46C54.9588 31.348 54.9908 31.236 55.0548 31.124C55.1268 31.004 55.2188 30.912 55.3308 30.848C55.3388 30.64 55.4028 30.448 55.5228 30.272C55.6428 30.088 55.7748 29.968 55.9188 29.912C55.9668 29.72 56.1668 29.528 56.5188 29.336C56.5268 29.248 56.6068 29.108 56.7588 28.916C56.9108 28.716 57.0348 28.6 57.1308 28.568C57.1388 28.472 57.1988 28.36 57.3108 28.232C57.4228 28.104 57.5308 28.02 57.6348 27.98C57.6828 27.844 57.7668 27.72 57.8868 27.608C58.0148 27.488 58.1268 27.432 58.2228 27.44C58.2468 27.36 58.2948 27.284 58.3668 27.212C58.4388 27.14 58.5028 27.1 58.5588 27.092C58.5508 27.028 58.5868 26.952 58.6668 26.864C58.7548 26.768 58.8468 26.692 58.9428 26.636C58.8628 26.668 58.7388 26.7 58.5708 26.732C58.4028 26.764 58.2428 26.78 58.0908 26.78C57.9068 26.78 57.7708 26.76 57.6828 26.72C57.6348 26.768 57.5668 26.804 57.4788 26.828C57.3908 26.852 57.2988 26.864 57.2028 26.864C57.0348 26.864 56.9188 26.836 56.8548 26.78C56.7988 26.828 56.7148 26.872 56.6028 26.912C56.4908 26.944 56.3788 26.96 56.2668 26.96C56.0828 26.96 55.9468 26.912 55.8588 26.816C55.8268 26.824 55.7868 26.828 55.7388 26.828C55.5948 26.828 55.4748 26.78 55.3788 26.684C55.2828 26.58 55.2348 26.46 55.2348 26.324C55.2348 26.252 55.2548 26.176 55.2948 26.096C55.3508 26 55.4388 25.924 55.5588 25.868C55.6868 25.804 55.8188 25.772 55.9548 25.772C56.0828 25.772 56.1868 25.8 56.2668 25.856C56.3548 25.784 56.4868 25.748 56.6628 25.748C56.8468 25.748 56.9668 25.796 57.0228 25.892C57.1988 25.772 57.3708 25.712 57.5388 25.712C57.6668 25.712 57.8068 25.752 57.9588 25.832C58.0788 25.736 58.2148 25.688 58.3668 25.688C58.4708 25.688 58.5628 25.708 58.6428 25.748C58.7308 25.66 58.8508 25.616 59.0028 25.616C59.0988 25.616 59.1708 25.624 59.2188 25.64C59.3628 25.616 59.4468 25.604 59.4708 25.604C59.5188 25.604 59.5548 25.608 59.5788 25.616C59.6028 25.584 59.6428 25.568 59.6988 25.568C59.7708 25.568 59.8388 25.588 59.9028 25.628C59.9268 25.596 59.9708 25.58 60.0348 25.58C60.0828 25.58 60.1268 25.592 60.1668 25.616C60.2068 25.64 60.2308 25.672 60.2388 25.712C60.4228 25.744 60.5148 25.844 60.5148 26.012C60.5148 26.076 60.4948 26.14 60.4548 26.204C60.4228 26.268 60.3748 26.32 60.3108 26.36C60.2788 26.552 60.1948 26.708 60.0588 26.828C59.9308 26.948 59.7948 27.008 59.6508 27.008C59.6668 27.12 59.6188 27.236 59.5068 27.356C59.4028 27.476 59.2748 27.564 59.1228 27.62C59.0508 27.78 58.9388 27.932 58.7868 28.076C58.6428 28.22 58.5348 28.292 58.4628 28.292C58.4708 28.444 58.4148 28.596 58.2948 28.748C58.1748 28.892 58.0548 28.972 57.9348 28.988C57.9348 29.1 57.8788 29.216 57.7668 29.336C57.6548 29.456 57.5468 29.532 57.4428 29.564C57.4108 29.684 57.3348 29.816 57.2148 29.96C57.0948 30.096 56.9868 30.192 56.8908 30.248C56.8828 30.36 56.8188 30.48 56.6988 30.608C56.5868 30.736 56.4748 30.816 56.3628 30.848C56.3628 30.856 56.3588 30.86 56.3508 30.86C56.3428 30.86 56.3388 30.864 56.3388 30.872C56.4988 30.872 56.5948 30.88 56.6268 30.896C56.7148 30.816 56.8108 30.776 56.9148 30.776C56.9468 30.776 56.9948 30.784 57.0588 30.8C57.1948 30.672 57.3508 30.608 57.5268 30.608C57.6548 30.608 57.7828 30.644 57.9108 30.716C57.9748 30.628 58.0988 30.584 58.2828 30.584C58.4028 30.584 58.5188 30.604 58.6308 30.644C58.7508 30.684 58.8388 30.736 58.8948 30.8C58.9748 30.72 59.0948 30.68 59.2548 30.68C59.4148 30.68 59.5588 30.712 59.6868 30.776ZM61.4686 27.344C61.4046 27.24 61.3726 27.14 61.3726 27.044C61.3726 26.9 61.4206 26.78 61.5166 26.684C61.5406 26.564 61.5966 26.452 61.6846 26.348C61.7726 26.236 61.8686 26.152 61.9726 26.096C62.0846 26.032 62.1726 26.008 62.2366 26.024C62.2926 25.936 62.4046 25.856 62.5726 25.784C62.7406 25.704 62.8966 25.664 63.0406 25.664C63.0726 25.664 63.1206 25.672 63.1846 25.688C63.2726 25.592 63.3886 25.544 63.5326 25.544C63.6446 25.544 63.7246 25.576 63.7726 25.64C63.8766 25.568 64.0126 25.532 64.1806 25.532C64.3806 25.532 64.5566 25.58 64.7086 25.676C64.8686 25.772 64.9606 25.9 64.9846 26.06C65.1286 26.108 65.2366 26.184 65.3086 26.288C65.3886 26.384 65.4366 26.52 65.4526 26.696C65.5566 26.8 65.6326 26.924 65.6806 27.068C65.7286 27.204 65.7526 27.344 65.7526 27.488C65.7526 27.672 65.7206 27.82 65.6566 27.932C65.7126 28.012 65.7606 28.132 65.8006 28.292C65.8406 28.452 65.8606 28.608 65.8606 28.76C65.8606 28.824 65.8526 28.904 65.8366 29C65.8926 29.12 65.9206 29.2 65.9206 29.24C65.9206 29.264 65.9086 29.32 65.8846 29.408C65.8926 29.44 65.9006 29.48 65.9086 29.528C65.9166 29.568 65.9206 29.62 65.9206 29.684C65.9206 29.804 65.8766 29.912 65.7886 30.008C65.8206 30.096 65.8366 30.204 65.8366 30.332C65.8366 30.5 65.7966 30.636 65.7166 30.74C65.7326 30.772 65.7406 30.824 65.7406 30.896C65.7406 31.064 65.6726 31.204 65.5366 31.316C65.5046 31.428 65.4446 31.516 65.3566 31.58C65.2686 31.636 65.1726 31.664 65.0686 31.664C64.9646 31.664 64.8806 31.632 64.8166 31.568C64.6086 31.656 64.4406 31.7 64.3126 31.7C64.2486 31.7 64.2006 31.696 64.1686 31.688C63.9606 31.752 63.7846 31.784 63.6406 31.784C63.5366 31.784 63.3926 31.764 63.2086 31.724C63.0966 31.788 62.9886 31.82 62.8846 31.82C62.7886 31.82 62.7006 31.792 62.6206 31.736C62.5806 31.744 62.5206 31.748 62.4406 31.748C62.1286 31.748 61.8886 31.608 61.7206 31.328C61.4166 31.152 61.2646 30.888 61.2646 30.536C61.2646 30.448 61.2686 30.38 61.2766 30.332C61.2046 30.284 61.1686 30.184 61.1686 30.032C61.1686 29.928 61.1886 29.836 61.2286 29.756C61.1966 29.612 61.1806 29.52 61.1806 29.48C61.1806 29.248 61.2926 29.04 61.5166 28.856C61.6046 28.672 61.7046 28.548 61.8166 28.484C61.9366 28.42 62.0846 28.372 62.2606 28.34C62.3086 28.204 62.4206 28.112 62.5966 28.064C62.7726 28.016 62.9446 28 63.1126 28.016C63.1606 27.984 63.2286 27.956 63.3166 27.932C63.4046 27.9 63.4926 27.884 63.5806 27.884C63.6766 27.884 63.7606 27.9 63.8326 27.932C63.8486 27.916 63.8886 27.908 63.9526 27.908C64.0006 27.908 64.0486 27.912 64.0966 27.92C64.1446 27.928 64.1766 27.94 64.1926 27.956C64.3046 27.812 64.4366 27.74 64.5886 27.74C64.6366 27.74 64.6846 27.752 64.7326 27.776V27.74C64.7326 27.604 64.7606 27.508 64.8166 27.452C64.7366 27.428 64.6486 27.36 64.5526 27.248C64.4646 27.128 64.4126 27.02 64.3966 26.924C64.2686 26.868 64.1806 26.776 64.1326 26.648C64.0366 26.72 63.9246 26.756 63.7966 26.756C63.7086 26.756 63.6246 26.732 63.5446 26.684C63.4086 26.724 63.3206 26.74 63.2806 26.732C63.1686 26.812 63.0446 26.852 62.9086 26.852C62.7886 27.012 62.6486 27.084 62.4886 27.068C62.4166 27.196 62.3166 27.308 62.1886 27.404C62.0686 27.5 61.9446 27.548 61.8166 27.548C61.6726 27.548 61.5566 27.48 61.4686 27.344ZM62.1286 30.02C62.2246 30.116 62.2726 30.208 62.2726 30.296C62.2726 30.36 62.2566 30.44 62.2246 30.536C62.2566 30.536 62.3006 30.556 62.3566 30.596C62.4206 30.628 62.4566 30.664 62.4646 30.704C62.5286 30.68 62.6086 30.668 62.7046 30.668C62.8806 30.668 62.9966 30.708 63.0526 30.788C63.1406 30.756 63.2326 30.74 63.3286 30.74C63.4806 30.74 63.6006 30.784 63.6886 30.872C63.7526 30.808 63.8566 30.756 64.0006 30.716C64.1526 30.676 64.2886 30.656 64.4086 30.656C64.4806 30.512 64.6086 30.428 64.7926 30.404C64.8086 30.348 64.8526 30.276 64.9246 30.188C64.8926 30.14 64.8646 30.076 64.8406 29.996C64.8166 29.916 64.8046 29.836 64.8046 29.756C64.8046 29.588 64.8446 29.464 64.9246 29.384C64.8366 29.272 64.7926 29.14 64.7926 28.988C64.7926 28.884 64.8086 28.796 64.8406 28.724C64.7766 28.764 64.7046 28.784 64.6246 28.784C64.5526 28.784 64.4926 28.756 64.4446 28.7C64.3726 28.772 64.2726 28.808 64.1446 28.808C64.0646 28.808 63.9846 28.788 63.9046 28.748C63.8166 28.836 63.7086 28.88 63.5806 28.88C63.5406 28.88 63.4806 28.864 63.4006 28.832C63.2806 28.952 63.1726 28.988 63.0766 28.94C63.0286 29.052 62.9646 29.128 62.8846 29.168C62.8126 29.208 62.7086 29.228 62.5726 29.228C62.5406 29.316 62.4846 29.388 62.4046 29.444C62.3326 29.5 62.2566 29.52 62.1766 29.504C62.2166 29.56 62.2366 29.624 62.2366 29.696C62.2366 29.816 62.2006 29.924 62.1286 30.02ZM68.3547 30.5C68.4347 30.588 68.4747 30.724 68.4747 30.908C68.4747 31.028 68.4547 31.144 68.4147 31.256C68.3827 31.36 68.3387 31.436 68.2827 31.484C68.3067 31.636 68.2667 31.76 68.1627 31.856C68.0587 31.952 67.9347 32 67.7907 32C67.6947 32 67.6027 31.976 67.5147 31.928C67.4267 31.88 67.3627 31.8 67.3227 31.688C67.2827 31.576 67.2627 31.456 67.2627 31.328C67.2627 31.152 67.2907 31.012 67.3467 30.908C67.3067 30.836 67.2867 30.732 67.2867 30.596C67.2867 30.444 67.3107 30.288 67.3587 30.128C67.3027 30.064 67.2747 29.948 67.2747 29.78C67.2747 29.564 67.3067 29.404 67.3707 29.3C67.3227 29.188 67.2987 29.08 67.2987 28.976C67.2987 28.832 67.3347 28.688 67.4067 28.544C67.3427 28.376 67.3107 28.224 67.3107 28.088C67.3107 27.976 67.3347 27.848 67.3827 27.704C67.3027 27.616 67.2627 27.504 67.2627 27.368C67.2627 27.312 67.2667 27.272 67.2747 27.248C67.1867 27.144 67.1427 27.024 67.1427 26.888C67.1427 26.8 67.1667 26.716 67.2147 26.636C67.1587 26.508 67.1307 26.384 67.1307 26.264C67.1307 26.072 67.1787 25.928 67.2747 25.832C67.2267 25.72 67.2027 25.584 67.2027 25.424C67.2027 25.296 67.2227 25.204 67.2627 25.148C67.2227 25.124 67.1907 25.08 67.1667 25.016C67.1427 24.952 67.1307 24.88 67.1307 24.8C67.1307 24.664 67.1627 24.552 67.2267 24.464C67.2027 24.4 67.1907 24.316 67.1907 24.212C67.1907 24.132 67.1987 24.06 67.2147 23.996C67.1187 23.9 67.0707 23.788 67.0707 23.66C67.0707 23.524 67.1267 23.408 67.2387 23.312C67.3587 23.208 67.4907 23.156 67.6347 23.156C67.7307 23.156 67.8187 23.188 67.8987 23.252C67.9787 23.308 68.0347 23.396 68.0667 23.516C68.1867 23.596 68.2467 23.72 68.2467 23.888C68.2467 23.92 68.2387 23.968 68.2227 24.032C68.3187 24.128 68.3667 24.252 68.3667 24.404C68.3667 24.532 68.3267 24.632 68.2467 24.704C68.2867 24.736 68.3227 24.792 68.3547 24.872C68.3867 24.944 68.4027 25.024 68.4027 25.112C68.4027 25.256 68.3507 25.376 68.2467 25.472C68.3107 25.56 68.3427 25.668 68.3427 25.796C68.3427 25.924 68.3187 26.028 68.2707 26.108C68.3027 26.14 68.3187 26.22 68.3187 26.348C68.3187 26.42 68.3107 26.496 68.2947 26.576C68.2787 26.656 68.2547 26.712 68.2227 26.744C68.3427 26.848 68.4027 26.98 68.4027 27.14C68.4027 27.228 68.3867 27.304 68.3547 27.368C68.4027 27.44 68.4267 27.548 68.4267 27.692C68.4267 27.876 68.3947 28.024 68.3307 28.136C68.3867 28.248 68.4147 28.396 68.4147 28.58C68.4147 28.804 68.3787 28.964 68.3067 29.06C68.3627 29.14 68.3907 29.24 68.3907 29.36C68.3907 29.464 68.3667 29.588 68.3187 29.732C68.3907 29.812 68.4267 29.936 68.4267 30.104C68.4267 30.248 68.4027 30.38 68.3547 30.5ZM74.7061 27.308C74.7941 27.348 74.8741 27.444 74.9461 27.596C75.0261 27.748 75.0661 27.904 75.0661 28.064C75.0661 28.336 74.9461 28.52 74.7061 28.616C74.6421 28.728 74.5541 28.816 74.4421 28.88C74.3381 28.944 74.2221 28.976 74.0941 28.976C73.9901 28.976 73.8821 28.952 73.7701 28.904C73.7061 28.944 73.6181 28.98 73.5061 29.012C73.3941 29.044 73.2821 29.06 73.1701 29.06C72.9781 29.06 72.8461 29.02 72.7741 28.94C72.6941 29.004 72.5661 29.036 72.3901 29.036C72.2621 29.036 72.1461 29.012 72.0421 28.964C71.9301 29.02 71.8021 29.048 71.6581 29.048C71.5221 29.048 71.4101 29.028 71.3221 28.988C71.2421 29.06 71.0781 29.096 70.8301 29.096C70.6941 29.096 70.6021 29.084 70.5541 29.06C70.5781 29.292 70.5461 29.464 70.4581 29.576C70.6101 29.728 70.6701 29.892 70.6381 30.068C70.6461 30.076 70.6901 30.108 70.7701 30.164C70.8501 30.22 70.9061 30.312 70.9381 30.44C71.0261 30.44 71.1061 30.476 71.1781 30.548C71.2581 30.62 71.3061 30.692 71.3221 30.764C71.3541 30.732 71.4181 30.716 71.5141 30.716C71.5861 30.716 71.6501 30.728 71.7061 30.752C71.7621 30.776 71.7941 30.804 71.8021 30.836C71.8581 30.804 71.9221 30.788 71.9941 30.788C72.0981 30.788 72.1941 30.824 72.2821 30.896C72.3621 30.88 72.4221 30.872 72.4621 30.872C72.5421 30.872 72.6101 30.884 72.6661 30.908C72.6901 30.844 72.7541 30.784 72.8581 30.728C72.9621 30.664 73.0701 30.636 73.1821 30.644C73.2461 30.564 73.3341 30.5 73.4461 30.452C73.5581 30.404 73.6701 30.38 73.7821 30.38C73.9981 30.38 74.1541 30.468 74.2501 30.644C74.2821 30.708 74.2981 30.784 74.2981 30.872C74.2981 31.064 74.2101 31.216 74.0341 31.328C73.9941 31.352 73.9261 31.396 73.8301 31.46C73.7341 31.516 73.6461 31.56 73.5661 31.592C73.4861 31.624 73.4141 31.64 73.3501 31.64C73.2301 31.784 73.0661 31.856 72.8581 31.856C72.7621 31.856 72.6901 31.848 72.6421 31.832C72.5461 31.912 72.4061 31.952 72.2221 31.952C72.0541 31.952 71.9381 31.92 71.8741 31.856C71.8181 31.88 71.7621 31.892 71.7061 31.892C71.5941 31.892 71.4901 31.852 71.3941 31.772C70.9861 31.796 70.7101 31.668 70.5661 31.388C70.4541 31.388 70.3261 31.32 70.1821 31.184C70.0461 31.04 69.9701 30.916 69.9541 30.812C69.7701 30.74 69.6541 30.608 69.6061 30.416C69.5981 30.352 69.5981 30.292 69.6061 30.236C69.5741 30.228 69.5461 30.196 69.5221 30.14C69.5061 30.076 69.4981 30.012 69.4981 29.948C69.4981 29.9 69.5021 29.868 69.5101 29.852C69.4461 29.66 69.4141 29.484 69.4141 29.324C69.4141 29.164 69.4461 29.02 69.5101 28.892C69.4621 28.804 69.4381 28.708 69.4381 28.604C69.4381 28.476 69.4661 28.348 69.5221 28.22C69.5781 28.092 69.6301 28.008 69.6781 27.968C69.6621 27.928 69.6741 27.86 69.7141 27.764C69.7541 27.66 69.8061 27.568 69.8701 27.488C69.9421 27.4 70.0141 27.348 70.0861 27.332L70.0741 27.2C70.0741 26.888 70.2421 26.692 70.5781 26.612C70.5781 26.476 70.6581 26.344 70.8181 26.216C70.9781 26.088 71.1181 26.032 71.2381 26.048C71.2541 25.96 71.3301 25.892 71.4661 25.844C71.6101 25.788 71.7181 25.772 71.7901 25.796C71.8541 25.692 71.9821 25.62 72.1741 25.58C72.2461 25.5 72.3501 25.46 72.4861 25.46C72.5261 25.46 72.5781 25.468 72.6421 25.484L72.7501 25.472C72.8461 25.472 72.9261 25.492 72.9901 25.532C73.0621 25.564 73.0941 25.604 73.0861 25.652C73.2621 25.668 73.4101 25.708 73.5301 25.772C73.6501 25.836 73.7221 25.952 73.7461 26.12C73.8501 26.096 73.9821 26.124 74.1421 26.204C74.3021 26.276 74.4381 26.392 74.5501 26.552C74.6701 26.704 74.7301 26.884 74.7301 27.092C74.7301 27.14 74.7221 27.212 74.7061 27.308ZM72.9421 28.088C73.0221 27.976 73.2181 27.92 73.5301 27.92C73.7061 27.92 73.8421 27.936 73.9381 27.968C73.8741 27.936 73.8141 27.868 73.7581 27.764C73.7101 27.652 73.6861 27.548 73.6861 27.452C73.6861 27.388 73.6981 27.34 73.7221 27.308C73.6101 27.316 73.5141 27.288 73.4341 27.224C73.3621 27.152 73.2941 27.072 73.2301 26.984C73.1741 26.896 73.1301 26.832 73.0981 26.792C73.0581 26.816 72.9741 26.796 72.8461 26.732C72.7261 26.66 72.6621 26.588 72.6541 26.516C72.6221 26.556 72.5541 26.592 72.4501 26.624C72.3461 26.648 72.2661 26.656 72.2101 26.648C72.1861 26.688 72.1301 26.728 72.0421 26.768C71.9541 26.808 71.8621 26.82 71.7661 26.804C71.6861 26.956 71.6021 27.08 71.5141 27.176C71.4261 27.272 71.3141 27.344 71.1781 27.392C71.1621 27.504 71.1101 27.628 71.0221 27.764C70.9421 27.9 70.8581 28.004 70.7701 28.076L70.8181 28.088C70.9301 28.008 71.0821 27.968 71.2741 27.968C71.3861 27.968 71.4901 27.98 71.5861 28.004C71.6901 28.028 71.7621 28.056 71.8021 28.088C71.9941 27.968 72.2061 27.908 72.4381 27.908C72.6301 27.908 72.7981 27.968 72.9421 28.088ZM80.0601 30.584C80.0841 30.664 80.0961 30.744 80.0961 30.824C80.0961 30.984 80.0321 31.092 79.9041 31.148C79.9201 31.268 79.8721 31.388 79.7601 31.508C79.6481 31.628 79.5441 31.688 79.4481 31.688C79.4081 31.76 79.2881 31.828 79.0881 31.892C78.8881 31.956 78.7041 31.988 78.5361 31.988C78.4161 31.988 78.3241 31.964 78.2601 31.916C78.1481 31.972 77.9881 32 77.7801 32C77.5961 32 77.4281 31.972 77.2761 31.916C77.1321 31.86 77.0441 31.776 77.0121 31.664C76.8521 31.688 76.6721 31.64 76.4721 31.52C76.2801 31.4 76.1561 31.276 76.1001 31.148C75.9561 31.108 75.8361 31.032 75.7401 30.92C75.6521 30.808 75.6041 30.676 75.5961 30.524C75.5481 30.452 75.5241 30.38 75.5241 30.308C75.5241 30.196 75.5601 30.096 75.6321 30.008C75.7121 29.92 75.8041 29.876 75.9081 29.876C76.0121 29.876 76.1121 29.94 76.2081 30.068C76.3521 30.052 76.4801 30.1 76.5921 30.212C76.7121 30.324 76.7721 30.436 76.7721 30.548C76.7961 30.548 76.8561 30.556 76.9521 30.572C77.0561 30.58 77.1481 30.608 77.2281 30.656C77.3081 30.704 77.3641 30.772 77.3961 30.86C77.5401 30.86 77.6801 30.88 77.8161 30.92C77.9601 30.952 78.0441 30.992 78.0681 31.04C78.1321 31 78.2241 30.968 78.3441 30.944C78.4721 30.912 78.5801 30.896 78.6681 30.896C78.6921 30.864 78.7521 30.832 78.8481 30.8C78.9441 30.768 79.0241 30.748 79.0881 30.74C79.0481 30.684 79.0281 30.6 79.0281 30.488C79.0281 30.32 79.0801 30.2 79.1841 30.128C79.0881 30.096 79.0121 30.048 78.9561 29.984C78.9001 29.912 78.8761 29.832 78.8841 29.744C78.8201 29.76 78.7721 29.768 78.7401 29.768C78.5881 29.768 78.4641 29.708 78.3681 29.588C78.2081 29.604 78.0481 29.568 77.8881 29.48C77.7361 29.392 77.6241 29.276 77.5521 29.132C77.4961 29.156 77.4361 29.168 77.3721 29.168C77.2361 29.168 77.0921 29.128 76.9401 29.048C76.7961 28.96 76.7041 28.876 76.6641 28.796C76.5521 28.828 76.4201 28.792 76.2681 28.688C76.1161 28.584 76.0401 28.468 76.0401 28.34C75.9441 28.292 75.8681 28.212 75.8121 28.1C75.7561 27.98 75.7281 27.872 75.7281 27.776C75.7281 27.704 75.7441 27.656 75.7761 27.632C75.7361 27.552 75.7161 27.472 75.7161 27.392C75.7161 27.248 75.7641 27.124 75.8601 27.02C75.8361 26.932 75.8241 26.852 75.8241 26.78C75.8241 26.644 75.8521 26.532 75.9081 26.444C75.9721 26.348 76.0481 26.308 76.1361 26.324C76.1201 26.196 76.1481 26.084 76.2201 25.988C76.3001 25.892 76.3961 25.824 76.5081 25.784C76.6281 25.736 76.7321 25.72 76.8201 25.736C76.8681 25.664 76.9321 25.608 77.0121 25.568C77.0921 25.528 77.1721 25.508 77.2521 25.508C77.3881 25.508 77.4841 25.548 77.5401 25.628C77.5481 25.588 77.5761 25.556 77.6241 25.532C77.6801 25.508 77.7441 25.496 77.8161 25.496C77.8801 25.496 77.9441 25.508 78.0081 25.532C78.0721 25.556 78.1201 25.584 78.1521 25.616C78.2001 25.568 78.2841 25.544 78.4041 25.544C78.5001 25.544 78.5961 25.564 78.6921 25.604C78.7881 25.636 78.8521 25.684 78.8841 25.748C78.9321 25.724 78.9841 25.712 79.0401 25.712C79.1361 25.712 79.2241 25.748 79.3041 25.82C79.3921 25.884 79.4521 25.968 79.4841 26.072C79.6041 26.056 79.7281 26.096 79.8561 26.192C79.9841 26.288 80.0321 26.384 80.0001 26.48C80.2161 26.6 80.3241 26.764 80.3241 26.972C80.3241 27.1 80.2801 27.212 80.1921 27.308C80.1041 27.404 79.9921 27.452 79.8561 27.452C79.7361 27.444 79.6361 27.412 79.5561 27.356C79.4761 27.3 79.4281 27.232 79.4121 27.152C79.3081 27.136 79.2081 27.096 79.1121 27.032C79.0241 26.96 78.9761 26.868 78.9681 26.756C78.8161 26.772 78.7001 26.756 78.6201 26.708C78.5481 26.66 78.4841 26.584 78.4281 26.48C78.3721 26.52 78.3001 26.54 78.2121 26.54C78.1241 26.54 78.0281 26.516 77.9241 26.468C77.8681 26.516 77.7961 26.556 77.7081 26.588C77.6281 26.62 77.5481 26.636 77.4681 26.636C77.3801 26.636 77.3041 26.616 77.2401 26.576C77.2561 26.672 77.2321 26.748 77.1681 26.804C77.1041 26.86 77.0161 26.88 76.9041 26.864C76.9281 26.92 76.9401 26.98 76.9401 27.044C76.9401 27.188 76.8761 27.308 76.7481 27.404C76.8361 27.444 76.9001 27.512 76.9401 27.608C76.9801 27.696 76.9961 27.784 76.9881 27.872L77.0841 27.86C77.3241 27.86 77.4761 27.936 77.5401 28.088L77.6361 28.076C77.7641 28.076 77.8841 28.108 77.9961 28.172C78.1161 28.236 78.2041 28.344 78.2601 28.496C78.3881 28.488 78.5121 28.504 78.6321 28.544C78.7521 28.576 78.8361 28.64 78.8841 28.736C78.9481 28.712 79.0081 28.7 79.0641 28.7C79.2001 28.7 79.3201 28.74 79.4241 28.82C79.5361 28.9 79.5961 28.992 79.6041 29.096C79.6761 29.096 79.7401 29.136 79.7961 29.216C79.8601 29.296 79.8841 29.388 79.8681 29.492C79.9241 29.484 79.9761 29.516 80.0241 29.588C80.0721 29.652 80.0961 29.728 80.0961 29.816C80.0961 29.864 80.0841 29.908 80.0601 29.948C80.1721 30.028 80.2281 30.136 80.2281 30.272C80.2281 30.344 80.2121 30.408 80.1801 30.464C80.1561 30.52 80.1161 30.56 80.0601 30.584Z" fill="white"/>
<path d="M109.224 33C108.612 33 108.092 32.7897 107.663 32.3692C107.235 31.9487 107.02 31.438 107.02 30.8373C107.02 30.2365 107.235 29.7259 107.663 29.3054C108.092 28.8849 108.612 28.6746 109.224 28.6746C109.837 28.6746 110.357 28.8849 110.786 29.3054C111.214 29.7259 111.429 30.2365 111.429 30.8373C111.429 31.438 111.214 31.9487 110.786 32.3692C110.357 32.7897 109.837 33 109.224 33V33ZM121.469 33C120.857 33 120.337 32.7897 119.908 32.3692C119.48 31.9487 119.265 31.438 119.265 30.8373C119.265 30.2365 119.48 29.7259 119.908 29.3054C120.337 28.8849 120.857 28.6746 121.469 28.6746C122.082 28.6746 122.602 28.8849 123.031 29.3054C123.459 29.7259 123.673 30.2365 123.673 30.8373C123.673 31.438 123.459 31.9487 123.031 32.3692C122.602 32.7897 122.082 33 121.469 33ZM107.633 13.1752L111 20.0238H119.816L123.643 13.1752H107.633ZM106.714 11.373H124.745C125.214 11.373 125.571 11.5832 125.816 12.0038C126.061 12.4243 126.061 12.8448 125.816 13.2653L121.684 20.5645C121.459 20.9449 121.168 21.2503 120.811 21.4806C120.454 21.7109 120.061 21.826 119.633 21.826H110.357L108.643 24.9499H123.673V26.7522H108.918C108.061 26.7522 107.444 26.4718 107.066 25.9111C106.689 25.3504 106.694 24.7196 107.082 24.0188L109.041 20.4743L104.388 10.8023H102V9H105.582L106.714 11.373ZM111 20.0238H119.816H111Z" fill="white"/>
</g>
<defs>
<filter id="filter0_b_32_138" x="-4" y="-4" width="146" height="48" filterUnits="userSpaceOnUse" color-interpolation-filters="sRGB">
<feFlood flood-opacity="0" result="BackgroundImageFix"/>
<feGaussianBlur in="BackgroundImageFix" stdDeviation="2"/>
<feComposite in2="SourceAlpha" operator="in" result="effect1_backgroundBlur_32_138"/>
<feBlend mode="normal" in="SourceGraphic" in2="effect1_backgroundBlur_32_138" result="shape"/>
</filter>
</defs>
</svg>
