<svg width="16" height="16" viewBox="0 0 16 16" fill="none" xmlns="http://www.w3.org/2000/svg">
<path d="M5.81095 15.9204L5.49254 13.3731C5.32007 13.3068 5.15768 13.2272 5.00537 13.1343C4.85254 13.0415 4.70315 12.942 4.55721 12.8358L2.18905 13.8308L0 10.0498L2.04975 8.49751C2.03648 8.40464 2.02985 8.31496 2.02985 8.22846V7.69114C2.02985 7.60517 2.03648 7.51576 2.04975 7.42289L0 5.87065L2.18905 2.08955L4.55721 3.08458C4.70315 2.97844 4.85572 2.87894 5.01493 2.78607C5.17413 2.6932 5.33333 2.6136 5.49254 2.54726L5.81095 0H10.1891L10.5075 2.54726C10.6799 2.6136 10.8426 2.6932 10.9954 2.78607C11.1477 2.87894 11.2969 2.97844 11.4428 3.08458L13.8109 2.08955L16 5.87065L13.9502 7.42289C13.9635 7.51576 13.9701 7.60517 13.9701 7.69114V8.22846C13.9701 8.31496 13.9569 8.40464 13.9303 8.49751L15.9801 10.0498L13.791 13.8308L11.4428 12.8358C11.2969 12.942 11.1443 13.0415 10.9851 13.1343C10.8259 13.2272 10.6667 13.3068 10.5075 13.3731L10.1891 15.9204H5.81095ZM8.0398 10.7463C8.80929 10.7463 9.466 10.4743 10.01 9.93035C10.5539 9.3864 10.8259 8.72969 10.8259 7.9602C10.8259 7.19071 10.5539 6.534 10.01 5.99005C9.466 5.4461 8.80929 5.17413 8.0398 5.17413C7.25705 5.17413 6.59688 5.4461 6.0593 5.99005C5.52226 6.534 5.25373 7.19071 5.25373 7.9602C5.25373 8.72969 5.52226 9.3864 6.0593 9.93035C6.59688 10.4743 7.25705 10.7463 8.0398 10.7463ZM8.0398 9.15423C7.70813 9.15423 7.42634 9.03801 7.19443 8.80557C6.96199 8.57367 6.84577 8.29187 6.84577 7.9602C6.84577 7.62852 6.96199 7.34673 7.19443 7.11483C7.42634 6.88239 7.70813 6.76617 8.0398 6.76617C8.37148 6.76617 8.65353 6.88239 8.88597 7.11483C9.11788 7.34673 9.23383 7.62852 9.23383 7.9602C9.23383 8.29187 9.11788 8.57367 8.88597 8.80557C8.65353 9.03801 8.37148 9.15423 8.0398 9.15423ZM7.20398 14.3284H8.77612L9.05473 12.2189C9.466 12.1128 9.84756 11.9567 10.1994 11.7508C10.5507 11.5455 10.8723 11.2969 11.1642 11.005L13.1343 11.8209L13.9104 10.4677L12.199 9.17413C12.2653 8.98839 12.3118 8.79257 12.3383 8.58667C12.3648 8.38129 12.3781 8.17247 12.3781 7.9602C12.3781 7.74793 12.3648 7.53884 12.3383 7.33294C12.3118 7.12756 12.2653 6.93201 12.199 6.74627L13.9104 5.45274L13.1343 4.0995L11.1642 4.93532C10.8723 4.63018 10.5507 4.37466 10.1994 4.16876C9.84756 3.96338 9.466 3.80763 9.05473 3.70149L8.79602 1.59204H7.22388L6.94527 3.70149C6.534 3.80763 6.1527 3.96338 5.80139 4.16876C5.44955 4.37466 5.1277 4.62355 4.83582 4.91542L2.86567 4.0995L2.08955 5.45274L3.801 6.72637C3.73466 6.92537 3.68823 7.12438 3.66169 7.32338C3.63516 7.52239 3.62189 7.73466 3.62189 7.9602C3.62189 8.17247 3.63516 8.37811 3.66169 8.57712C3.68823 8.77612 3.73466 8.97513 3.801 9.17413L2.08955 10.4677L2.86567 11.8209L4.83582 10.9851C5.1277 11.2902 5.44955 11.5455 5.80139 11.7508C6.1527 11.9567 6.534 12.1128 6.94527 12.2189L7.20398 14.3284Z" fill="#1C1B1F"/>
</svg>
