<svg width="16" height="15" viewBox="0 0 16 15" fill="none" xmlns="http://www.w3.org/2000/svg">
<path d="M15.1663 6.40991V12.7402C15.1663 13.1781 15.0105 13.5532 14.6989 13.8653C14.3867 14.1769 14.0117 14.3327 13.5737 14.3327H2.42607C1.98812 14.3327 1.61335 14.1769 1.30174 13.8653C0.98961 13.5532 0.833543 13.1781 0.833543 12.7402V6.40991C0.528309 6.13122 0.29288 5.7729 0.127258 5.33496C-0.0388956 4.89701 -0.0423461 4.41926 0.116906 3.90169L0.952982 1.19439C1.05915 0.849347 1.2484 0.564019 1.52072 0.338412C1.79251 0.112804 2.10756 0 2.46588 0H13.5339C13.8922 0 14.2041 0.109353 14.4695 0.32806C14.735 0.547298 14.9274 0.836076 15.0468 1.19439L15.8829 3.90169C16.0422 4.41926 16.039 4.89038 15.8733 5.31505C15.7072 5.73973 15.4715 6.10468 15.1663 6.40991ZM9.75168 5.57384C10.11 5.57384 10.3821 5.45095 10.5679 5.20517C10.7536 4.95992 10.8266 4.68468 10.7868 4.37944L10.3489 1.59253H8.79617V4.5387C8.79617 4.81739 8.88906 5.05972 9.07486 5.26568C9.26065 5.47112 9.48626 5.57384 9.75168 5.57384ZM6.1685 5.57384C6.47374 5.57384 6.7227 5.47112 6.9154 5.26568C7.10756 5.05972 7.20364 4.81739 7.20364 4.5387V1.59253H5.65093L5.21299 4.37944C5.1599 4.69795 5.22971 4.97664 5.4224 5.21552C5.61457 5.4544 5.86327 5.57384 6.1685 5.57384ZM2.62513 5.57384C2.86401 5.57384 3.0729 5.48758 3.25179 5.31505C3.43122 5.14253 3.54084 4.92356 3.58065 4.65814L4.01859 1.59253H2.46588L1.66962 4.26C1.58999 4.52543 1.63299 4.81075 1.79861 5.11599C1.96477 5.42122 2.24027 5.57384 2.62513 5.57384ZM13.3747 5.57384C13.7595 5.57384 14.0382 5.42122 14.2108 5.11599C14.3833 4.81075 14.4231 4.52543 14.3302 4.26L13.4941 1.59253H11.9812L12.4192 4.65814C12.459 4.92356 12.5686 5.14253 12.748 5.31505C12.9269 5.48758 13.1358 5.57384 13.3747 5.57384ZM2.42607 12.7402H13.5737V7.12655C13.5074 7.15309 13.4644 7.16636 13.4447 7.16636H13.3747C13.0164 7.16636 12.701 7.10664 12.4287 6.9872C12.1569 6.86776 11.8883 6.67533 11.6229 6.40991C11.384 6.64879 11.112 6.83459 10.8067 6.9673C10.5015 7.10001 10.1764 7.16636 9.83131 7.16636C9.47299 7.16636 9.13776 7.10001 8.82563 6.9673C8.51403 6.83459 8.23878 6.64879 7.99991 6.40991C7.7743 6.64879 7.51233 6.83459 7.21399 6.9673C6.91513 7.10001 6.59317 7.16636 6.24813 7.16636C5.86327 7.16636 5.51477 7.10001 5.20264 6.9673C4.89103 6.83459 4.61579 6.64879 4.37691 6.40991C4.09822 6.68861 3.82298 6.88422 3.55119 6.99676C3.27887 7.10983 2.97018 7.16636 2.62513 7.16636H2.53595C2.50251 7.16636 2.46588 7.15309 2.42607 7.12655V12.7402Z" fill="#1C1B1F"/>
</svg>
